<?xml version="1.0" encoding="UTF-8"?>
<svg xmlns="http://www.w3.org/2000/svg" viewBox="0 0 107.72 11.34">
  <defs>
    <style>
      .cls-1 {
        fill: #001339;
      }

      .cls-2 {
        fill: #fff;
      }
    </style>
  </defs>
  <g id="Layer_1" data-name="Layer 1">
    <rect class="cls-1" x="0" y="0" width="107.72" height="11.34"/>
  </g>
  <g id="_Layer_" data-name="&amp;lt;Layer&amp;gt;">
    <g>
      <g>
        <path class="cls-2" d="M3.19,8.27V3.07h1.15v4.17h2.6v1.03h-3.74Z"/>
        <path class="cls-2" d="M11.67,8.27l-.48-1.17h-2.2l-.48,1.17h-1.17l2.23-5.24h1.06l2.23,5.24h-1.2ZM10.09,4.4l-.69,1.69h1.38l-.69-1.69Z"/>
        <path class="cls-2" d="M17.03,8.27l-1.61-2.22-.6.62v1.59h-1.15V3.07h1.15v2.28l2.11-2.28h1.38l-2.12,2.21,2.22,3h-1.38Z"/>
        <path class="cls-2" d="M19.1,8.27V3.07h3.92v1.02h-2.79v1.06h2.46v1.02h-2.46v1.09h2.83v1.02h-3.96Z"/>
        <path class="cls-2" d="M30.91,6.7c-.13.32-.32.59-.57.83-.25.23-.54.42-.88.55s-.71.2-1.12.2h-2.03V3.07h2.03c.41,0,.78.07,1.12.2.34.13.63.31.88.55.25.23.44.51.57.82.13.31.2.66.2,1.02h0c0,.38-.07.72-.2,1.04ZM29.92,5.67c0-.23-.04-.44-.12-.63-.08-.19-.18-.36-.32-.5-.14-.14-.3-.25-.49-.32-.19-.08-.41-.12-.64-.12h-.89v3.14h.89c.23,0,.45-.04.64-.11s.36-.18.49-.32.24-.3.32-.49c.08-.19.12-.4.12-.63h0Z"/>
        <path class="cls-2" d="M32.19,8.27V3.07h1.15v5.21h-1.15Z"/>
        <path class="cls-2" d="M38.26,7.42c-.09.2-.22.37-.39.51-.17.14-.37.24-.6.31-.23.07-.49.11-.77.11-.4,0-.79-.07-1.17-.2s-.73-.35-1.04-.63l.68-.81c.24.19.48.35.73.46.25.11.52.17.82.17.24,0,.42-.04.55-.13.13-.09.2-.21.2-.36h0c0-.09-.01-.15-.04-.21s-.08-.11-.16-.16c-.08-.05-.18-.1-.32-.15s-.31-.1-.53-.16c-.26-.06-.5-.14-.72-.22-.21-.08-.39-.18-.54-.29-.15-.12-.26-.26-.35-.44-.08-.17-.12-.39-.12-.65h0c0-.25.04-.47.13-.66.09-.19.21-.36.37-.49.16-.14.35-.25.57-.32.22-.07.47-.11.74-.11.38,0,.73.06,1.05.17.32.11.61.28.88.49l-.6.86c-.23-.16-.46-.28-.68-.38-.22-.09-.45-.14-.67-.14s-.39.04-.5.13-.17.19-.17.32h0c0,.1.02.17.05.23.03.06.09.12.18.17.08.05.2.1.35.14.15.04.33.1.56.16.26.07.5.15.7.23.21.09.38.19.52.31.14.12.25.26.32.43s.11.36.11.59h0c0,.27-.05.5-.14.7Z"/>
        <path class="cls-2" d="M41.75,4.12v4.15h-1.15v-4.15h-1.58v-1.06h4.31v1.06h-1.58Z"/>
        <path class="cls-2" d="M47.38,8.27l-1.12-1.67h-.9v1.67h-1.15V3.07h2.38c.62,0,1.1.15,1.45.45s.52.72.52,1.26h0c0,.44-.1.78-.31,1.05-.21.27-.48.46-.81.58l1.27,1.86h-1.34ZM47.4,4.84c0-.25-.08-.43-.24-.56-.16-.12-.38-.19-.66-.19h-1.14v1.5h1.16c.28,0,.5-.07.65-.2s.23-.31.23-.54h0Z"/>
        <path class="cls-2" d="M49.65,8.27V3.07h1.15v5.21h-1.15Z"/>
        <path class="cls-2" d="M56.25,7.82c-.14.11-.3.21-.47.29-.17.08-.36.14-.56.19-.2.04-.43.06-.68.06-.38,0-.74-.07-1.06-.21-.33-.14-.61-.33-.85-.57-.24-.24-.42-.52-.56-.85-.13-.33-.2-.68-.2-1.05h0c0-.39.07-.74.2-1.06s.32-.61.56-.86.52-.44.86-.58c.33-.14.7-.21,1.1-.21.24,0,.46.02.67.06s.38.09.55.16c.16.07.31.15.45.25.14.1.27.21.39.33l-.73.84c-.2-.18-.41-.33-.62-.43-.21-.1-.45-.16-.71-.16-.22,0-.42.04-.61.13s-.35.2-.48.35c-.13.15-.24.32-.31.52s-.11.41-.11.63h0c0,.24.04.45.11.65.07.2.18.37.31.52.13.15.29.27.48.35s.39.13.61.13c.3,0,.55-.05.76-.16.21-.11.41-.26.61-.45l.73.74c-.13.14-.27.27-.42.39Z"/>
        <path class="cls-2" d="M59.94,4.12v4.15h-1.15v-4.15h-1.58v-1.06h4.31v1.06h-1.58Z"/>
        <path class="cls-2" d="M67.9,8.27v-2.09h-2.11v2.09h-1.15V3.07h1.15v2.06h2.11v-2.06h1.15v5.21h-1.15Z"/>
        <path class="cls-2" d="M75.39,6.71c-.14.32-.33.61-.58.86-.25.25-.54.44-.88.58s-.71.21-1.11.21-.77-.07-1.11-.21c-.34-.14-.63-.33-.87-.57-.25-.24-.44-.52-.57-.85-.14-.32-.2-.67-.2-1.05h0c0-.39.07-.74.21-1.06s.33-.61.58-.86.54-.44.88-.58c.34-.14.71-.21,1.11-.21s.77.07,1.11.21c.34.14.63.33.87.57s.44.52.57.85.2.67.2,1.05h0c0,.39-.07.74-.21,1.06ZM74.4,5.67c0-.22-.04-.43-.12-.63s-.19-.37-.33-.52c-.14-.15-.31-.27-.5-.35-.19-.09-.4-.13-.63-.13s-.45.04-.64.13c-.19.08-.35.2-.49.35-.14.15-.24.32-.32.52s-.12.41-.12.63h0c0,.24.04.45.12.65.08.2.19.37.33.52.14.15.31.27.5.35.19.09.4.13.64.13s.44-.04.63-.13.36-.2.49-.35c.14-.15.24-.32.32-.52s.12-.41.12-.63h0Z"/>
        <path class="cls-2" d="M80.27,8.27l-2.52-3.31v3.31h-1.13V3.07h1.06l2.44,3.21v-3.21h1.13v5.21h-.97Z"/>
        <path class="cls-2" d="M82.49,8.27V3.07h3.92v1.02h-2.79v1.06h2.46v1.02h-2.46v1.09h2.83v1.02h-3.96Z"/>
        <path class="cls-2" d="M90.09,6.2v2.08h-1.15v-2.05l-2-3.15h1.34l1.24,2.09,1.27-2.09h1.3l-2,3.13Z"/>
        <path class="cls-2" d="M99.2,7.82c-.14.11-.3.21-.47.29-.17.08-.36.14-.56.19-.2.04-.43.06-.68.06-.38,0-.74-.07-1.06-.21-.33-.14-.61-.33-.85-.57-.24-.24-.42-.52-.56-.85-.13-.33-.2-.68-.2-1.05h0c0-.39.07-.74.2-1.06s.32-.61.56-.86.52-.44.86-.58c.33-.14.7-.21,1.1-.21.24,0,.46.02.67.06s.38.09.55.16c.16.07.31.15.45.25.14.1.27.21.39.33l-.73.84c-.2-.18-.41-.33-.62-.43-.21-.1-.45-.16-.71-.16-.22,0-.42.04-.61.13s-.35.2-.48.35c-.13.15-.24.32-.31.52s-.11.41-.11.63h0c0,.24.04.45.11.65.07.2.18.37.31.52.13.15.29.27.48.35s.39.13.61.13c.3,0,.55-.05.76-.16.21-.11.41-.26.61-.45l.73.74c-.13.14-.27.27-.42.39Z"/>
      </g>
      <path class="cls-2" d="M104.37,5.91c-.11.25-.26.47-.45.66-.19.19-.42.34-.68.45-.26.11-.55.16-.86.16s-.59-.05-.86-.16c-.26-.11-.49-.25-.68-.44s-.34-.4-.45-.65-.16-.52-.16-.81h0c0-.3.05-.57.16-.82.11-.25.26-.47.45-.66.19-.19.42-.34.68-.45.26-.11.55-.16.86-.16s.59.05.86.16.49.25.68.44c.19.19.34.4.45.65.11.25.16.52.16.81h0c0,.3-.05.57-.16.82ZM103.41,5.1c0-.15-.02-.29-.07-.42-.05-.13-.12-.25-.22-.35-.09-.1-.21-.18-.33-.24-.13-.06-.27-.09-.42-.09-.16,0-.31.03-.44.09-.13.06-.23.14-.32.23-.09.1-.16.21-.2.35-.05.13-.07.27-.07.42h0c0,.16.02.3.07.44.05.13.12.25.22.35.09.1.2.18.33.24.13.06.27.09.43.09s.31-.03.44-.09c.13-.06.23-.13.32-.23.09-.1.16-.21.2-.35.05-.13.07-.27.07-.42h0Z"/>
      <path class="cls-2" d="M103.82,7.66v.71h-2.89v-.71h2.89Z"/>
    </g>
  </g>
</svg>