<svg width="1000" height="105" viewBox="0 0 1000 105" fill="none" xmlns="http://www.w3.org/2000/svg">
<g clip-path="url(#clip0_140_84)">
<path d="M1000 0H0V105H1000V0Z" fill="#F7F7FF"/>
<path d="M29.6138 76.5741V28.4259H40.2897V67.037H64.4263V76.5741H29.7067H29.6138Z" fill="#0A0A0A"/>
<path d="M108.336 76.5741L103.88 65.7407H83.4571L79.0011 76.5741H68.1396L88.8415 28.0555H98.6818L119.384 76.5741H108.244H108.336ZM93.6688 40.7407L87.2633 56.3889H100.074L93.6688 40.7407Z" fill="#0A0A0A"/>
<path d="M158.095 76.5741L143.149 56.0185L137.579 61.7592V76.4815H126.903V28.4259H137.579V49.537L157.167 28.4259H169.978L150.297 48.8889L170.906 76.6666H158.095V76.5741Z" fill="#0A0A0A"/>
<path d="M177.312 76.5741V28.4259H213.702V37.8703H187.802V47.6852H210.639V57.1296H187.802V67.2222H214.074V76.6666H177.312V76.5741Z" fill="#0A0A0A"/>
<path d="M286.948 62.037C285.741 65 283.977 67.5 281.656 69.7222C279.335 71.8518 276.643 73.6111 273.487 74.8148C270.33 76.0185 266.896 76.6666 263.089 76.6666H244.244V28.4259H263.089C266.896 28.4259 270.33 29.0741 273.487 30.2778C276.643 31.4815 279.335 33.1481 281.656 35.3703C283.977 37.5 285.741 40.0926 286.948 42.9629C288.154 45.8333 288.804 49.0741 288.804 52.4074C288.804 55.9259 288.154 59.0741 286.948 62.037ZM277.757 52.5C277.757 50.3703 277.386 48.4259 276.643 46.6666C275.9 44.9074 274.972 43.3333 273.672 42.037C272.373 40.7407 270.887 39.7222 269.124 39.074C267.36 38.3333 265.317 37.9629 263.182 37.9629H254.92V67.037H263.182C265.317 67.037 267.36 66.6666 269.124 66.0185C270.887 65.3703 272.466 64.3518 273.672 63.0555C274.879 61.7592 275.9 60.2778 276.643 58.5185C277.386 56.7592 277.757 54.8148 277.757 52.6852V52.5Z" fill="#0A0A0A"/>
<path d="M298.83 76.5741V28.4259H309.506V76.6666H298.83V76.5741Z" fill="#0A0A0A"/>
<path d="M355.18 68.7037C354.345 70.5555 353.138 72.1296 351.56 73.4259C349.981 74.7222 348.125 75.6481 345.99 76.2963C343.854 76.9444 341.441 77.3148 338.841 77.3148C335.128 77.3148 331.508 76.6667 327.98 75.463C324.452 74.2592 321.203 72.2222 318.325 69.6296L324.638 62.1296C326.866 63.8889 329.094 65.3704 331.415 66.3889C333.736 67.4074 336.242 67.963 339.027 67.963C341.255 67.963 342.926 67.5926 344.133 66.7593C345.34 65.9259 345.99 64.8148 345.99 63.4259C345.99 62.5926 345.897 62.037 345.618 61.4815C345.34 60.9259 344.876 60.463 344.133 60C343.39 59.537 342.462 59.0741 341.162 58.6111C339.863 58.1481 338.284 57.6852 336.242 57.1296C333.828 56.5741 331.6 55.8333 329.558 55.0926C327.609 54.3518 325.938 53.4259 324.545 52.4074C323.153 51.2963 322.131 50 321.296 48.3333C320.553 46.7593 320.182 44.7222 320.182 42.3148C320.182 40 320.553 37.963 321.389 36.2037C322.224 34.4444 323.338 32.8704 324.824 31.6667C326.309 30.3704 328.073 29.3518 330.115 28.7037C332.157 28.0556 334.478 27.6852 336.985 27.6852C340.512 27.6852 343.762 28.2407 346.732 29.2593C349.703 30.2778 352.395 31.8518 354.902 33.7963L349.332 41.7593C347.196 40.2778 345.061 39.1667 343.019 38.2407C340.977 37.4074 338.841 36.9444 336.799 36.9444C334.757 36.9444 333.179 37.3148 332.157 38.1481C331.136 38.9815 330.579 39.9074 330.579 41.1111C330.579 42.037 330.765 42.6852 331.043 43.2407C331.322 43.7963 331.879 44.3518 332.714 44.8148C333.457 45.2778 334.571 45.7407 335.964 46.1111C337.356 46.4815 339.027 47.037 341.162 47.5926C343.576 48.2407 345.804 48.9815 347.661 49.7222C349.61 50.5555 351.188 51.4815 352.488 52.5926C353.788 53.7037 354.809 55 355.459 56.5741C356.108 58.1481 356.48 59.9074 356.48 62.037C356.48 64.537 356.016 66.6667 355.18 68.5185V68.7037Z" fill="#0A0A0A"/>
<path d="M387.579 38.1481V76.5741H376.903V38.1481H362.235V28.3333H402.247V38.1481H387.579Z" fill="#0A0A0A"/>
<path d="M439.844 76.5741L429.447 61.1111H421.092V76.5741H410.416V28.4259H432.51C438.266 28.4259 442.722 29.8148 445.971 32.5926C449.22 35.3703 450.798 39.2592 450.798 44.2592C450.798 48.3333 449.87 51.4815 447.921 53.9815C445.971 56.4815 443.465 58.2407 440.401 59.3518L452.191 76.5741H439.751H439.844ZM440.03 44.8148C440.03 42.5 439.287 40.8333 437.802 39.6296C436.316 38.5185 434.274 37.8703 431.675 37.8703H421.092V51.7592H431.86C434.46 51.7592 436.502 51.1111 437.895 49.9074C439.287 48.7037 440.03 47.037 440.03 44.9074V44.8148Z" fill="#0A0A0A"/>
<path d="M460.917 76.5741V28.4259H471.593V76.6666H460.917V76.5741Z" fill="#0A0A0A"/>
<path d="M522.187 72.4074C520.888 73.4259 519.402 74.3518 517.824 75.0926C516.246 75.8333 514.482 76.3889 512.625 76.8519C510.769 77.2222 508.634 77.4074 506.313 77.4074C502.785 77.4074 499.443 76.7593 496.472 75.463C493.409 74.1667 490.81 72.4074 488.582 70.1852C486.354 67.963 484.683 65.3704 483.383 62.3148C482.176 59.2593 481.526 56.0185 481.526 52.5926C481.526 48.9815 482.176 45.7407 483.383 42.7778C484.59 39.8148 486.354 37.1296 488.582 34.8148C490.81 32.5 493.409 30.7407 496.565 29.4444C499.629 28.1481 503.064 27.5 506.777 27.5C509.005 27.5 511.047 27.6852 512.997 28.0556C514.946 28.4259 516.524 28.8889 518.103 29.537C519.588 30.1852 520.98 30.9259 522.28 31.8519C523.58 32.7778 524.787 33.7963 525.901 34.9074L519.124 42.6852C517.267 41.0185 515.317 39.6296 513.368 38.7037C511.419 37.7778 509.191 37.2222 506.777 37.2222C504.735 37.2222 502.878 37.5926 501.114 38.4259C499.35 39.2593 497.865 40.2778 496.658 41.6667C495.451 43.0556 494.43 44.6296 493.78 46.4815C493.13 48.3333 492.759 50.2778 492.759 52.3148C492.759 54.537 493.13 56.4815 493.78 58.3333C494.43 60.1852 495.451 61.7593 496.658 63.1481C497.865 64.537 499.35 65.6481 501.114 66.3889C502.878 67.1296 504.735 67.5926 506.777 67.5926C509.562 67.5926 511.883 67.1296 513.832 66.1111C515.782 65.0926 517.638 63.7037 519.495 61.9444L526.272 68.7963C525.065 70.0926 523.765 71.2963 522.373 72.4074H522.187Z" fill="#0A0A0A"/>
<path d="M556.443 38.1481V76.5741H545.767V38.1481H531.099V28.3333H571.11V38.1481H556.443Z" fill="#0A0A0A"/>
<path d="M630.338 76.5741V57.2222H610.75V76.5741H600.074V28.4259H610.75V47.5H630.338V28.4259H641.014V76.6666H630.338V76.5741Z" fill="#0A0A0A"/>
<path d="M699.87 62.1296C698.57 65.0926 696.807 67.7778 694.486 70.0926C692.165 72.4074 689.473 74.1667 686.316 75.463C683.16 76.7593 679.725 77.4074 676.012 77.4074C672.299 77.4074 668.864 76.7593 665.707 75.463C662.551 74.1667 659.859 72.4074 657.631 70.1852C655.31 67.963 653.546 65.3704 652.339 62.3148C651.04 59.3519 650.483 56.1111 650.483 52.5926C650.483 48.9815 651.133 45.7407 652.432 42.7778C653.732 39.8148 655.496 37.1296 657.817 34.8148C660.137 32.5 662.83 30.7407 665.986 29.4444C669.142 28.1481 672.577 27.5 676.29 27.5C680.004 27.5 683.439 28.1481 686.595 29.4444C689.751 30.7407 692.443 32.5 694.671 34.7222C696.899 36.9444 698.756 39.537 699.963 42.5926C701.17 45.6481 701.82 48.7963 701.82 52.3148C701.82 55.9259 701.17 59.1667 699.87 62.1296ZM690.68 52.5C690.68 50.463 690.308 48.5185 689.566 46.6667C688.823 44.8148 687.802 43.2407 686.502 41.8519C685.202 40.463 683.624 39.3519 681.86 38.6111C680.097 37.7778 678.147 37.4074 676.012 37.4074C673.877 37.4074 671.834 37.7778 670.071 38.6111C668.307 39.3519 666.821 40.463 665.522 41.8519C664.222 43.2407 663.294 44.8148 662.551 46.6667C661.808 48.5185 661.437 50.463 661.437 52.5C661.437 54.7222 661.808 56.6667 662.551 58.5185C663.294 60.3704 664.315 61.9444 665.615 63.3333C666.914 64.7222 668.492 65.8333 670.256 66.5741C672.02 67.4074 673.97 67.7778 676.198 67.7778C678.426 67.7778 680.282 67.4074 682.046 66.5741C683.81 65.7407 685.388 64.7222 686.595 63.3333C687.895 61.9444 688.823 60.3704 689.566 58.5185C690.308 56.6667 690.68 54.7222 690.68 52.6852V52.5Z" fill="#0A0A0A"/>
<path d="M745.173 76.5741L721.779 45.9259V76.5741H711.289V28.4259H721.129L743.78 58.1481V28.4259H754.27V76.6666H745.265L745.173 76.5741Z" fill="#0A0A0A"/>
<path d="M765.782 76.5741V28.4259H802.172V37.8703H776.272V47.6852H799.109V57.1296H776.272V67.2222H802.544V76.6666H765.782V76.5741Z" fill="#0A0A0A"/>
<path d="M836.335 57.4074V76.6666H825.659V57.6852L807.093 28.5185H819.532L831.043 47.8703L842.833 28.5185H854.902L836.335 57.5V57.4074Z" fill="#0A0A0A"/>
<path d="M920.906 72.4074C919.606 73.4259 918.121 74.3518 916.543 75.0926C914.965 75.8333 913.201 76.3889 911.344 76.8519C909.488 77.2222 907.352 77.4074 905.032 77.4074C901.504 77.4074 898.162 76.7593 895.191 75.463C892.128 74.1667 889.528 72.4074 887.3 70.1852C885.072 67.963 883.401 65.3704 882.102 62.3148C880.895 59.2593 880.245 56.0185 880.245 52.5926C880.245 48.9815 880.895 45.7407 882.102 42.7778C883.309 39.8148 885.072 37.1296 887.3 34.8148C889.528 32.5 892.128 30.7407 895.284 29.4444C898.348 28.1481 901.782 27.5 905.496 27.5C907.724 27.5 909.766 27.6852 911.716 28.0556C913.665 28.4259 915.243 28.8889 916.821 29.537C918.307 30.1852 919.699 30.9259 920.999 31.8519C922.299 32.7778 923.505 33.7963 924.619 34.9074L917.843 42.6852C915.986 41.0185 914.036 39.6296 912.087 38.7037C910.137 37.7778 907.909 37.2222 905.496 37.2222C903.453 37.2222 901.597 37.5926 899.833 38.4259C898.069 39.2593 896.584 40.2778 895.377 41.6667C894.17 43.0556 893.149 44.6296 892.499 46.4815C891.849 48.3333 891.478 50.2778 891.478 52.3148C891.478 54.537 891.849 56.4815 892.499 58.3333C893.149 60.1852 894.17 61.7593 895.377 63.1481C896.584 64.537 898.069 65.6481 899.833 66.3889C901.597 67.1296 903.453 67.5926 905.496 67.5926C908.281 67.5926 910.602 67.1296 912.551 66.1111C914.501 65.0926 916.357 63.7037 918.214 61.9444L924.991 68.7963C923.784 70.0926 922.484 71.2963 921.092 72.4074H920.906Z" fill="#0A0A0A"/>
<path d="M968.901 54.7222C967.88 57.037 966.487 59.0741 964.723 60.8333C962.959 62.5926 960.824 63.9815 958.411 65C955.997 66.0185 953.305 66.4815 950.427 66.4815C947.549 66.4815 944.95 66.0185 942.443 65C940.03 63.9815 937.894 62.6852 936.131 60.9259C934.367 59.1667 932.974 57.2222 931.953 54.9074C930.932 52.5926 930.468 50.0926 930.468 47.4074C930.468 44.6296 930.932 42.1296 931.953 39.8148C932.974 37.5 934.367 35.463 936.131 33.7037C937.894 31.9444 940.03 30.5555 942.443 29.537C944.857 28.5185 947.549 28.0555 950.427 28.0555C953.305 28.0555 955.904 28.5185 958.411 29.537C960.917 30.5555 962.959 31.8518 964.723 33.6111C966.487 35.3704 967.88 37.3148 968.901 39.6296C969.922 41.9444 970.386 44.4444 970.386 47.1296C970.386 49.9074 969.922 52.4074 968.901 54.7222ZM959.989 47.2222C959.989 45.8333 959.803 44.537 959.339 43.3333C958.875 42.1296 958.225 41.0185 957.297 40.0926C956.461 39.1667 955.347 38.4259 954.233 37.8704C953.026 37.3148 951.727 37.037 950.334 37.037C948.849 37.037 947.456 37.3148 946.25 37.8704C945.043 38.4259 944.114 39.1667 943.279 40C942.443 40.9259 941.794 41.9444 941.422 43.2407C940.958 44.4444 940.772 45.7407 940.772 47.1296C940.772 48.6111 940.958 49.9074 941.422 51.2037C941.886 52.4074 942.536 53.5185 943.464 54.4444C944.3 55.3704 945.321 56.1111 946.528 56.6667C947.735 57.2222 949.035 57.5 950.52 57.5C952.005 57.5 953.398 57.2222 954.605 56.6667C955.811 56.1111 956.74 55.4629 957.575 54.537C958.411 53.6111 959.06 52.5926 959.432 51.2963C959.896 50.0926 960.082 48.7963 960.082 47.4074L959.989 47.2222Z" fill="#0A0A0A"/>
<path d="M963.795 70.9259V77.5H936.966V70.9259H963.795Z" fill="#0A0A0A"/>
</g>
<defs>
<clipPath id="clip0_140_84">
<rect width="1000" height="105" fill="white"/>
</clipPath>
</defs>
</svg>
