<svg width="3809" height="383" viewBox="0 0 3809 383" fill="none" xmlns="http://www.w3.org/2000/svg">
<path d="M2917 114C2925.91 114 2934.82 114 2944 114C2952.95 125.112 2952.95 125.112 2955.14 130.039C2957.61 135.287 2960.44 140.018 2963.69 144.812C2964.57 146.166 2965.45 147.522 2966.32 148.879C2967.22 150.253 2968.11 151.626 2969 153C2971 156.083 2973 159.166 2975 162.25C2975.46 162.954 2975.91 163.657 2976.39 164.382C2978.21 167.202 2980.01 170.01 2981.69 172.922C2982.83 175.132 2982.83 175.132 2985 176C2985.27 175.271 2985.54 174.541 2985.82 173.79C2986.97 171.071 2988.28 168.816 2989.91 166.359C2990.5 165.466 2991.09 164.572 2991.7 163.651C2992.33 162.694 2992.97 161.736 2993.62 160.75C2994.98 158.691 2996.34 156.631 2997.69 154.57C2998.4 153.498 2999.1 152.426 2999.83 151.321C3004.12 144.754 3008.33 138.132 3012.54 131.515C3013.17 130.533 3013.8 129.551 3014.44 128.539C3014.98 127.685 3015.53 126.831 3016.09 125.952C3018.69 121.942 3021.35 117.975 3024 114C3032.91 114 3041.82 114 3051 114C3051 158.88 3051 203.76 3051 250C3042.75 250 3034.5 250 3026 250C3025.67 219.31 3025.34 188.62 3025 157C3018.16 167.117 3018.16 167.117 3011.19 177.438C3009.77 179.528 3008.36 181.618 3006.9 183.771C3005.74 185.492 3004.58 187.213 3003.42 188.934C3002.79 189.857 3002.17 190.781 3001.52 191.733C2998.52 196.187 2995.56 200.657 2992.7 205.204C2992.2 206.002 2991.69 206.8 2991.17 207.622C2990.24 209.11 2989.32 210.603 2988.4 212.104C2987.35 213.787 2986.18 215.403 2985 217C2984.01 217 2983.02 217 2982 217C2980.61 215.437 2980.61 215.437 2979.17 213.215C2978.63 212.386 2978.08 211.556 2977.52 210.702C2976.94 209.79 2976.35 208.877 2975.75 207.938C2975.14 206.999 2974.52 206.06 2973.89 205.093C2971.92 202.068 2969.96 199.035 2968 196C2966.07 193.024 2964.13 190.051 2962.19 187.078C2960.99 185.228 2959.79 183.376 2958.59 181.521C2953.22 173.227 2947.61 165.156 2942 157C2941.67 187.69 2941.34 218.38 2941 250C2933.08 250 2925.16 250 2917 250C2917 205.12 2917 160.24 2917 114Z" fill="#080808"/>
<path d="M3366 114C3373.92 114 3381.84 114 3390 114C3397.61 121.958 3397.61 121.958 3399.5 125.578C3401.77 129.698 3404.39 133.245 3407.38 136.875C3408.28 138.022 3409.19 139.17 3410.1 140.32C3410.56 140.911 3411.03 141.502 3411.51 142.11C3414.29 145.645 3417.05 149.198 3419.81 152.75C3420.4 153.504 3420.98 154.258 3421.59 155.035C3422.79 156.578 3423.99 158.121 3425.18 159.664C3427.01 162.007 3428.83 164.349 3430.65 166.691C3436.64 174.378 3442.61 182.071 3448.52 189.812C3451.97 194.246 3455.49 198.616 3459 203C3459.33 173.63 3459.66 144.26 3460 114C3468.25 114 3476.5 114 3485 114C3485 158.88 3485 203.76 3485 250C3464 250 3464 250 3459.81 246.812C3458.84 245.231 3457.9 243.623 3457 242C3455.84 240.475 3454.68 238.95 3453.49 237.449C3452.17 235.784 3450.87 234.099 3449.59 232.406C3447.15 229.2 3444.7 226.005 3442.25 222.812C3441.85 222.286 3441.44 221.759 3441.02 221.217C3435.05 213.453 3429.02 205.73 3423 198C3420.58 194.896 3418.17 191.792 3415.75 188.688C3415.17 187.938 3414.58 187.189 3413.98 186.417C3409.79 181.026 3405.62 175.615 3401.48 170.188C3398.03 165.754 3394.51 161.384 3391 157C3390.67 187.69 3390.34 218.38 3390 250C3382.08 250 3374.16 250 3366 250C3366 205.12 3366 160.24 3366 114Z" fill="#080808"/>
<path d="M2118 114C2142 114 2142 114 2147.12 118.875C2148.07 120.588 2149.02 122.304 2149.9 124.049C2152.06 127.881 2154.94 131.204 2157.69 134.625C2158.9 136.171 2160.1 137.72 2161.31 139.27C2161.92 140.049 2162.53 140.828 2163.15 141.631C2166.19 145.522 2169.22 149.417 2172.25 153.312C2173.13 154.445 2173.13 154.445 2174.03 155.6C2178.16 160.914 2182.27 166.245 2186.37 171.586C2188.38 174.205 2190.41 176.811 2192.45 179.414C2193.05 180.193 2193.66 180.973 2194.29 181.775C2195.47 183.283 2196.65 184.79 2197.83 186.295C2202.37 192.106 2206.65 198.025 2211 204C2211.33 174.3 2211.66 144.6 2212 114C2220.25 114 2228.5 114 2237 114C2237 158.88 2237 203.76 2237 250C2216 250 2216 250 2211.81 246.812C2210.84 245.232 2209.9 243.624 2209 242C2207.5 240.024 2205.98 238.067 2204.44 236.125C2203.58 235.004 2202.72 233.882 2201.87 232.758C2198.61 228.481 2195.31 224.241 2192 220C2187.99 214.845 2183.98 209.683 2180 204.5C2174.32 197.103 2168.59 189.746 2162.86 182.388C2160.95 179.934 2159.04 177.479 2157.13 175.023C2156.19 173.809 2156.19 173.809 2155.23 172.569C2154.02 171.021 2152.82 169.473 2151.62 167.925C2150.8 166.87 2150.8 166.87 2149.96 165.793C2149.48 165.18 2149.01 164.566 2148.52 163.934C2146.69 161.61 2144.85 159.307 2143 157C2142.67 187.69 2142.34 218.38 2142 250C2134.08 250 2126.16 250 2118 250C2118 205.12 2118 160.24 2118 114Z" fill="#090909"/>
<path d="M2012.28 110.879C2033.45 110.296 2051.99 117.489 2067.38 131.875C2081.73 147.136 2086.9 166.308 2086.35 186.766C2085.54 202.654 2079.53 217.06 2069 229C2068.34 229.75 2067.69 230.5 2067.01 231.273C2055.05 244.09 2038.42 251.596 2020.91 252.238C1997.73 252.681 1979.11 247.184 1961.89 231.02C1948.17 216.843 1943.33 198.394 1943.53 179.154C1944.19 158.913 1952.51 141.939 1967.06 127.875C1979.77 117.089 1995.79 111.755 2012.28 110.879ZM1980 150C1970.68 162.278 1968.44 175.983 1970 191C1972.27 202.539 1978.57 213.824 1988 221C2000.59 228.618 2013.01 231.017 2027.54 228.352C2038.91 224.918 2048.72 216.619 2054.54 206.262C2061 192.595 2062.34 178.329 2057.25 163.961C2052.03 151.626 2044.18 142.759 2031.91 137.152C2013.15 129.733 1993.56 135.444 1980 150Z" fill="#090909"/>
<path d="M2863.63 129.195C2877.29 142.115 2884.81 159.952 2885.41 178.591C2885.64 197.622 2880.82 214.467 2868 229C2867.34 229.75 2866.69 230.5 2866.01 231.273C2854.05 244.09 2837.42 251.596 2819.91 252.238C2796.96 252.676 2778.11 247.362 2761.11 231.207C2746.59 215.905 2742.53 196.896 2742.8 176.488C2743.29 158.697 2751.51 142.599 2763.93 130.051C2791.87 104.182 2835.07 105.374 2863.63 129.195ZM2779 150C2769.9 162.634 2767.47 175.739 2769 191C2771.3 202.543 2777.56 213.816 2787 221C2799.56 228.602 2812.07 231.093 2826.57 228.316C2832.99 226.338 2838.02 223.478 2843 219C2843.68 218.425 2844.36 217.85 2845.06 217.258C2853.11 209.931 2858.18 199.722 2859.2 188.837C2859.3 186.595 2859.33 184.369 2859.31 182.125C2859.31 181.333 2859.3 180.542 2859.3 179.726C2859.17 173.723 2858.48 168.523 2856 163C2855.61 162.112 2855.22 161.224 2854.82 160.309C2849.02 148.502 2840.21 140.74 2828 136C2810.21 130.061 2791.37 136.367 2779 150Z" fill="#090909"/>
<path d="M1260 114C1271.63 113.938 1283.26 113.876 1295.25 113.812C1298.9 113.785 1302.55 113.758 1306.31 113.73C1310.83 113.716 1310.83 113.716 1312.95 113.714C1314.41 113.709 1315.87 113.699 1317.33 113.683C1333.39 113.523 1348.69 115.849 1360.94 127.187C1370.67 137.605 1371.47 149.276 1371.27 162.773C1370.88 173.495 1366.66 181.522 1359 189C1347.1 198 1347.1 198 1340 198C1346.13 206.728 1352.3 215.43 1358.56 224.062C1362.88 230.017 1367.14 236.009 1371.31 242.062C1372.02 243.09 1372.02 243.09 1372.75 244.139C1376 248.877 1376 248.877 1376 250C1350.47 252.513 1350.47 252.513 1343.69 248.704C1340.1 245.206 1338.14 240.85 1336.12 236.318C1334.19 232.325 1331.51 228.867 1328.88 225.312C1323.12 217.539 1323.12 217.539 1321.26 213.074C1318.67 207.56 1318.67 207.56 1314 204C1304.4 202.095 1294.74 202.782 1285 203C1285 218.51 1285 234.02 1285 250C1276.75 250 1268.5 250 1260 250C1260 205.12 1260 160.24 1260 114ZM1285 136C1285 150.85 1285 165.7 1285 181C1291.08 181.041 1297.17 181.082 1303.44 181.125C1305.34 181.143 1307.24 181.161 1309.2 181.18C1310.74 181.186 1312.27 181.191 1313.81 181.195C1314.58 181.206 1315.36 181.216 1316.16 181.226C1325.15 181.229 1332.84 179.634 1340 174C1345.57 168.136 1346.42 162.731 1346.24 154.867C1345.75 149.051 1343.31 146.104 1339.19 142.25C1331.62 135.977 1322.68 135.839 1313.22 135.902C1312.5 135.903 1311.78 135.904 1311.04 135.905C1308.38 135.911 1305.72 135.925 1303.06 135.937C1294.12 135.968 1294.12 135.968 1285 136Z" fill="#080808"/>
<path d="M788 114C872.208 114 872.208 114 893 134C906.629 148.207 911.531 165.073 911.42 184.355C910.952 202.782 904.137 218.023 891 231C890.386 231.636 889.773 232.271 889.141 232.926C863.577 257.561 817.25 250 788 250C788 205.12 788 160.24 788 114ZM813 136C813 166.03 813 196.06 813 227C843.666 228.837 843.666 228.837 870 217C870.699 216.437 871.397 215.873 872.117 215.293C879.136 209.002 884.375 199.418 885.177 189.9C885.619 173.709 884.197 161.607 873 149C870.495 146.665 867.922 144.779 865 143C864.41 142.624 863.819 142.247 863.211 141.859C848.199 133.3 829.165 136 813 136Z" fill="#090909"/>
<path d="M2275 114C2308.33 114 2341.66 114 2376 114C2376 121.26 2376 128.52 2376 136C2350.92 136 2325.84 136 2300 136C2300 147.22 2300 158.44 2300 170C2322.44 170 2344.88 170 2368 170C2368 177.26 2368 184.52 2368 192C2345.56 192 2323.12 192 2300 192C2300 203.88 2300 215.76 2300 228C2325.41 228 2350.82 228 2377 228C2377 235.26 2377 242.52 2377 250C2343.34 250 2309.68 250 2275 250C2275 205.12 2275 160.24 2275 114Z" fill="#070707"/>
<path d="M1799 114C1807.25 114 1815.5 114 1824 114C1824 132.48 1824 150.96 1824 170C1844.79 170 1865.58 170 1887 170C1887 151.52 1887 133.04 1887 114C1895.25 114 1903.5 114 1912 114C1912 158.88 1912 203.76 1912 250C1903.75 250 1895.5 250 1887 250C1887 231.19 1887 212.38 1887 193C1866.21 193 1845.42 193 1824 193C1824 211.81 1824 230.62 1824 250C1815.75 250 1807.5 250 1799 250C1799 205.12 1799 160.24 1799 114Z" fill="#080808"/>
<path d="M601 114C634.33 114 667.66 114 702 114C702 121.26 702 128.52 702 136C676.59 136 651.18 136 625 136C625 147.22 625 158.44 625 170C647.44 170 669.88 170 693 170C693 177.26 693 184.52 693 192C670.56 192 648.12 192 625 192C625 203.88 625 215.76 625 228C650.74 228 676.48 228 703 228C703 235.26 703 242.52 703 250C669.34 250 635.68 250 601 250C601 205.12 601 160.24 601 114Z" fill="#040404"/>
<path d="M457 114C464.92 114 472.84 114 481 114C481.33 135.45 481.66 156.9 482 179C493.769 167.252 493.769 167.252 505 155C506.647 153.314 508.311 151.644 510 150C512.931 147.104 515.764 144.198 518.438 141.063C521.739 137.199 525.322 133.648 528.938 130.082C532.279 126.768 535.429 123.348 538.465 119.754C538.971 119.175 539.478 118.596 540 118C540.544 117.312 541.087 116.624 541.648 115.915C544.897 113.27 547.022 113.541 551.172 113.609C552.196 113.618 552.196 113.618 553.24 113.627C555.411 113.649 557.58 113.699 559.75 113.75C561.225 113.77 562.701 113.788 564.176 113.805C567.784 113.849 571.392 113.918 575 114C570.732 119.046 566.344 123.94 561.812 128.75C560.792 129.836 560.792 129.836 559.75 130.943C553.486 137.563 547.054 144.01 540.56 150.403C536.357 154.559 532.346 158.797 528.494 163.279C525.826 166.352 522.904 169.155 520 172C523.886 177.999 527.999 183.713 532.438 189.313C537.544 195.813 542.559 202.372 547.5 209C552.407 215.579 557.38 222.098 562.438 228.563C577 247.206 577 247.206 577 250C552.141 253.314 552.141 253.314 544.202 248.197C539.342 243.388 535.934 237.648 532.585 231.727C530.36 227.899 527.725 224.48 525 221C524.05 219.742 523.104 218.481 522.16 217.219C521.667 216.561 521.173 215.904 520.665 215.227C519.432 213.578 518.205 211.927 516.98 210.273C514.808 207.343 512.623 204.421 510.438 201.5C509.746 200.56 509.054 199.621 508.342 198.652C507.691 197.787 507.041 196.922 506.371 196.031C505.793 195.253 505.215 194.475 504.619 193.674C504.085 193.121 503.55 192.569 503 192C500.039 191.691 500.039 191.691 498.33 193.313C497.736 193.916 497.143 194.519 496.531 195.141C495.878 195.799 495.224 196.458 494.551 197.137C493.874 197.834 493.197 198.532 492.5 199.25C491.485 200.273 491.485 200.273 490.449 201.316C488.605 203.19 486.771 205.058 485 207C484.444 207.552 483.888 208.103 483.315 208.672C481.272 212.288 481.52 215.834 481.488 219.922C481.47 220.782 481.452 221.642 481.434 222.528C481.38 225.269 481.346 228.009 481.312 230.75C481.279 232.611 481.245 234.471 481.209 236.332C481.122 240.888 481.062 245.443 481 250C473.08 250 465.16 250 457 250C457 205.12 457 160.24 457 114Z" fill="#070707"/>
<path d="M3258 113C3265.92 113 3273.84 113 3282 113C3290.29 131.223 3298.43 149.497 3306.36 167.883C3309.65 175.517 3312.97 183.139 3316.29 190.76C3317.01 192.414 3317.73 194.068 3318.45 195.722C3322.41 204.809 3326.38 213.885 3330.42 222.938C3331.12 224.522 3331.83 226.106 3332.53 227.69C3333.86 230.673 3335.19 233.652 3336.53 236.63C3337.13 237.967 3337.72 239.304 3338.32 240.641C3338.84 241.801 3339.36 242.962 3339.89 244.157C3341 247 3341 247 3341 250C3332.42 250 3323.84 250 3315 250C3310.03 239.43 3305.54 228.792 3301 218C3280.21 217.67 3259.42 217.34 3238 217C3237.01 219.97 3236.02 222.94 3235 226C3234.2 228.053 3233.37 230.097 3232.52 232.129C3232.12 233.081 3231.72 234.033 3231.31 235.014C3230.57 236.77 3230.57 236.77 3229.81 238.562C3228.22 242.337 3226.64 246.111 3225 250C3216.42 250 3207.84 250 3199 250C3201.06 243.82 3203.2 237.992 3205.85 232.086C3206.22 231.251 3206.59 230.415 3206.98 229.555C3207.77 227.761 3208.57 225.968 3209.37 224.176C3211.53 219.353 3213.67 214.524 3215.81 209.695C3216.25 208.711 3216.69 207.727 3217.14 206.714C3221.34 197.244 3225.49 187.751 3229.62 178.25C3230.31 176.667 3231 175.083 3231.69 173.5C3232.73 171.118 3233.76 168.736 3234.8 166.354C3237.44 160.282 3240.09 154.211 3242.73 148.141C3243.12 147.245 3243.52 146.35 3243.92 145.428C3245.44 141.939 3246.96 138.45 3248.48 134.962C3249.52 132.589 3250.55 130.216 3251.59 127.844C3252.04 126.804 3252.04 126.804 3252.5 125.744C3252.79 125.088 3253.07 124.432 3253.37 123.756C3253.73 122.916 3253.73 122.916 3254.11 122.06C3255.41 119.044 3256.71 116.021 3258 113ZM3269 144C3266 150.94 3263.01 157.882 3260.03 164.825C3259.01 167.189 3257.99 169.552 3256.97 171.914C3255.51 175.303 3254.05 178.694 3252.59 182.086C3252.13 183.147 3251.68 184.209 3251.2 185.303C3250.78 186.283 3250.36 187.264 3249.93 188.275C3249.55 189.141 3249.18 190.007 3248.8 190.899C3247.88 192.937 3247.88 192.937 3248 195C3262.52 195 3277.04 195 3292 195C3287.68 183.772 3287.68 183.772 3283.08 172.672C3282.74 171.871 3282.4 171.071 3282.04 170.246C3281.33 168.586 3280.61 166.926 3279.9 165.266C3278.8 162.715 3277.71 160.16 3276.62 157.605C3275.92 155.982 3275.22 154.358 3274.52 152.734C3274.2 151.971 3273.87 151.208 3273.54 150.421C3272.08 146.518 3272.08 146.518 3269 144Z" fill="#090909"/>
<path d="M349 113C356.92 113 364.84 113 373 113C374.018 115.34 375.037 117.679 376.086 120.09C383.634 137.426 391.202 154.753 398.812 172.062C406.406 189.334 413.941 206.631 421.452 223.938C421.86 224.877 422.268 225.816 422.688 226.783C423.445 228.527 424.201 230.27 424.957 232.014C425.3 232.803 425.643 233.593 425.996 234.406C426.488 235.541 426.488 235.541 426.99 236.699C427.697 238.311 428.417 239.917 429.146 241.52C429.513 242.328 429.88 243.136 430.258 243.969C430.759 245.058 430.759 245.058 431.27 246.17C432 248 432 248 432 250C423.42 250 414.84 250 406 250C402.226 242.735 398.811 235.414 395.625 227.875C395.267 227.033 394.91 226.192 394.541 225.325C394.21 224.535 393.88 223.744 393.539 222.93C393.242 222.221 392.945 221.511 392.639 220.781C392 219 392 219 392 217C371.21 217.33 350.42 217.66 329 218C324.764 228.156 324.764 228.156 320.533 238.314C320.003 239.583 319.472 240.852 318.941 242.121C318.666 242.785 318.39 243.45 318.106 244.134C316.114 248.886 316.114 248.886 315 250C313.146 250.087 311.289 250.107 309.434 250.098C308.309 250.094 307.184 250.091 306.025 250.088C304.841 250.08 303.657 250.071 302.438 250.062C301.25 250.058 300.062 250.053 298.838 250.049C295.892 250.037 292.946 250.021 290 250C290.678 245.258 292.498 241.246 294.438 236.914C294.789 236.118 295.141 235.321 295.503 234.501C296.664 231.874 297.832 229.249 299 226.625C300.236 223.831 301.471 221.036 302.706 218.241C303.553 216.324 304.4 214.408 305.248 212.492C309.021 203.967 312.75 195.424 316.467 186.875C322.475 173.06 328.508 159.255 334.561 145.459C335.342 143.679 336.123 141.899 336.904 140.119C340.879 131.053 344.874 121.999 349 113ZM360 144C355.129 154.25 350.516 164.592 346.063 175.03C345.042 177.423 344.016 179.813 342.99 182.203C342.338 183.726 341.687 185.25 341.035 186.773C340.729 187.487 340.423 188.2 340.107 188.935C338.638 191.868 338.638 191.868 338 195C352.85 195 367.7 195 383 195C375.939 177.867 368.596 160.9 361 144C360.67 144 360.34 144 360 144Z" fill="#090909"/>
<path d="M3089 114C3169.2 114 3169.2 114 3184.22 128.031C3193.73 138.542 3195.79 150.925 3195.35 164.617C3194.66 176.008 3189.59 185.877 3181.38 193.688C3166.84 205.595 3150.64 206.441 3132.75 206.188C3123.47 206.095 3123.47 206.095 3114 206C3114 220.52 3114 235.04 3114 250C3105.75 250 3097.5 250 3089 250C3089 205.12 3089 160.24 3089 114ZM3114 136C3114 151.84 3114 167.68 3114 184C3122.07 184.124 3122.07 184.124 3130.31 184.25C3131.99 184.286 3133.66 184.323 3135.39 184.36C3146.13 184.496 3156.39 183.592 3164.56 175.754C3169.05 170.277 3170.67 164.432 3170.31 157.414C3169.39 150.208 3166.86 146.048 3161.18 141.473C3154.03 136.645 3146.11 135.867 3137.63 135.902C3136.39 135.905 3135.15 135.907 3133.86 135.91C3132.3 135.919 3130.74 135.928 3129.12 135.938C3124.13 135.958 3119.14 135.979 3114 136Z" fill="#080808"/>
<path d="M1094 124C1095.7 125.292 1097.38 126.611 1099 128C1098.38 131.151 1097.33 133.27 1095.5 135.891C1095 136.6 1094.51 137.309 1094 138.039C1093.49 138.769 1092.97 139.498 1092.44 140.25C1091.92 140.995 1091.4 141.74 1090.86 142.508C1089.58 144.342 1088.29 146.173 1087 148C1083.5 146.701 1080.51 145.148 1077.38 143.125C1066.19 136.275 1053.56 132.921 1040.48 135.496C1035.98 137.019 1033 139.367 1030 143C1028.43 147.702 1028.28 152.069 1030 156.688C1037.44 165.294 1049.87 167.463 1060.48 170.145C1073.84 173.564 1090.24 178.224 1098.19 190.375C1098.68 191.105 1099.16 191.834 1099.67 192.586C1104.67 201.649 1104.28 213.399 1102.35 223.371C1098.98 233.573 1092.4 240.961 1083 246C1065.29 254.572 1044.45 253.972 1026.05 247.711C1015.6 243.887 1006.31 238.41 998 231C998.596 227.662 999.702 225.85 1001.94 223.328C1002.52 222.664 1003.11 222 1003.71 221.316C1004.63 220.294 1004.63 220.294 1005.56 219.25C1006.18 218.553 1006.79 217.855 1007.43 217.137C1008.95 215.419 1010.47 213.707 1012 212C1012.59 212.399 1013.18 212.798 1013.78 213.209C1016.17 214.827 1018.58 216.416 1021 218C1021.79 218.526 1022.59 219.052 1023.4 219.594C1035.06 226.999 1048.92 231.019 1062.72 228.504C1068.26 227.027 1072.08 225.212 1076 221C1078.41 216.279 1078.37 212.021 1077 207C1073.99 201.124 1067.85 199.299 1062 197C1057.27 195.525 1052.49 194.292 1047.69 193.063C1015.8 184.579 1015.8 184.579 1007.31 171.375C1002.21 161.636 1001.28 150.357 1004.12 139.688C1007.91 128.96 1015.24 121.073 1025.44 116.188C1047.84 106.167 1073.71 112.156 1094 124Z" fill="#0A0A0A"/>
<path d="M2719.46 127.004C2721.34 128.636 2723.19 130.291 2725 132C2723.65 134.954 2722.1 137.236 2719.96 139.672C2719.09 140.668 2719.09 140.668 2718.2 141.684C2717.6 142.366 2717 143.047 2716.38 143.75C2715.76 144.447 2715.15 145.145 2714.52 145.863C2713.02 147.579 2711.51 149.291 2710 151C2706.32 149.237 2703.23 147.035 2699.94 144.625C2690.04 137.589 2679.22 133.972 2667 135C2655.92 136.875 2645.14 141.151 2638.22 150.375C2629.88 162.819 2626.1 176.151 2628.5 191.094C2631.13 202.661 2636.35 214.447 2646.71 221.101C2658.57 227.849 2670.8 230.127 2684.28 227.316C2693.66 224.072 2701.72 218.651 2709 212C2711.93 213.321 2713.99 214.746 2716.23 217.039C2716.81 217.619 2717.38 218.199 2717.97 218.797C2718.56 219.4 2719.15 220.003 2719.75 220.625C2720.35 221.236 2720.95 221.847 2721.57 222.477C2723.05 223.98 2724.53 225.489 2726 227C2722.06 236.871 2709.1 243.209 2699.91 247.371C2683.1 254.542 2661.03 254.826 2644 248C2625.35 240.016 2612.94 226.647 2605 208C2598.6 189.347 2599.26 167.987 2607.42 149.945C2616.82 132.411 2630.44 120.121 2649.48 113.93C2673.71 107.523 2699.73 110.918 2719.46 127.004Z" fill="#0A0A0A"/>
<path d="M1581.69 128.938C1582.8 129.951 1583.91 130.969 1585 132C1583.4 135.642 1581.15 138.444 1578.62 141.5C1577.47 142.908 1577.47 142.908 1576.29 144.344C1574.28 146.676 1572.21 148.86 1570 151C1566.57 149.45 1563.79 147.405 1560.81 145.125C1550.78 137.778 1539.59 133.715 1527 135C1514.87 136.959 1504.67 142.241 1497 152C1489.16 164.225 1486.61 177.733 1489 192C1491.71 203.853 1497.7 215.133 1508 222C1520.15 228.481 1533.89 230.515 1547.31 226.562C1554.61 223.73 1562.3 218.904 1567.68 213.223C1569 212 1569 212 1572 212C1573.58 213.504 1573.58 213.504 1575.25 215.562C1578.63 219.606 1582.22 223.327 1586 227C1581.18 238.299 1566.85 244.407 1556.25 248.922C1537.22 255.235 1515 253.752 1497.12 244.812C1491 241.262 1485.97 237.017 1481 232C1480.3 231.336 1479.61 230.672 1478.89 229.988C1466.13 216.988 1461.21 198.818 1460.97 181.035C1461.24 160.86 1469.09 143.412 1483 129C1510.66 104.581 1554.05 104.981 1581.69 128.938Z" fill="#0A0A0A"/>
<path d="M2397 114C2422.46 111.181 2422.46 111.181 2429.27 115.412C2432.93 119.391 2434.8 124.305 2436.79 129.266C2438.97 134.196 2442.04 138.575 2445 143.062C2446.18 144.909 2447.36 146.756 2448.54 148.605C2453.33 156.087 2458.16 163.549 2463 171C2466.7 166.602 2469.77 161.885 2472.88 157.062C2473.44 156.195 2474 155.328 2474.58 154.434C2477.65 149.684 2480.69 144.92 2483.72 140.145C2484.33 139.181 2484.94 138.217 2485.57 137.224C2486.74 135.38 2487.9 133.535 2489.07 131.688C2490.15 129.969 2491.26 128.26 2492.38 126.563C2494.05 123.999 2494.05 123.999 2495.46 121.152C2497.1 118.24 2498.46 116.172 2501 114C2505.87 112.797 2510.46 113.048 2515.44 113.375C2517.39 113.443 2517.39 113.443 2519.39 113.512C2522.6 113.629 2525.8 113.793 2529 114C2527.29 119.201 2524.21 123.474 2521.2 127.988C2519.99 129.81 2518.78 131.631 2517.58 133.452C2516.94 134.407 2516.31 135.361 2515.65 136.345C2513.67 139.345 2511.71 142.359 2509.75 145.378C2503.97 154.252 2498.24 162.967 2491.44 171.094C2472.13 194.819 2474.6 220.509 2476 250C2467.75 250 2459.5 250 2451 250C2451.07 246.311 2451.13 242.621 2451.2 238.82C2451.23 235.186 2451.23 231.552 2451.23 227.917C2451.24 225.421 2451.28 222.925 2451.33 220.429C2451.69 203.792 2450.33 192.836 2439.54 179.891C2437.26 177.083 2435.34 174.077 2433.41 171.023C2432.7 169.936 2431.99 168.848 2431.25 167.728C2430.52 166.61 2429.79 165.493 2429.06 164.375C2427.44 161.896 2425.82 159.416 2424.2 156.938C2423.78 156.303 2423.37 155.668 2422.94 155.014C2420.18 150.794 2417.41 146.581 2414.63 142.371C2412.68 139.424 2410.74 136.474 2408.79 133.525C2407.85 132.097 2406.91 130.671 2405.96 129.245C2404.65 127.257 2403.34 125.265 2402.02 123.273C2401.63 122.681 2401.24 122.089 2400.83 121.478C2399.2 118.989 2397.95 116.843 2397 114Z" fill="#0A0A0A"/>
<path d="M3508 114C3533.39 111.014 3533.39 111.014 3540.41 115.559C3544.33 119.84 3546.55 125.016 3548.79 130.319C3550.75 134.664 3553.38 138.53 3556 142.5C3556.99 144.056 3557.97 145.615 3558.95 147.176C3559.69 148.347 3559.69 148.347 3560.45 149.542C3564.96 156.694 3569.48 163.847 3574 171C3577.47 167.835 3579.84 164.302 3582.25 160.312C3583.13 158.886 3584 157.46 3584.88 156.035C3585.37 155.244 3585.86 154.453 3586.36 153.637C3589.57 148.478 3592.85 143.366 3596.12 138.25C3596.78 137.222 3597.44 136.193 3598.11 135.134C3599.41 133.104 3600.73 131.083 3602.06 129.073C3604.06 125.999 3604.06 125.999 3605.75 122.591C3607.59 119.213 3609.19 116.637 3612 114C3617.08 112.569 3621.77 112.851 3627 113.25C3628.36 113.31 3629.72 113.365 3631.08 113.414C3634.39 113.555 3637.69 113.752 3641 114C3640.61 114.608 3640.22 115.217 3639.82 115.844C3637.11 120.085 3634.41 124.326 3631.77 128.605C3625.08 139.416 3618.08 150.002 3611 160.562C3609.88 162.241 3608.75 163.92 3607.63 165.6C3606.81 166.833 3606.81 166.833 3605.96 168.091C3604.86 169.738 3603.77 171.391 3602.69 173.048C3600.28 176.716 3597.88 180.235 3595 183.554C3585.21 195.286 3586.66 208.826 3586.88 223.437C3586.88 226.019 3586.87 228.6 3586.87 231.182C3586.85 237.457 3586.93 243.722 3587 250C3578.75 250 3570.5 250 3562 250C3562.13 246.404 3562.25 242.807 3562.38 239.102C3563.65 203.223 3563.65 203.224 3546.58 173.096C3542.03 167.811 3538.45 161.774 3534.71 155.904C3532.53 152.494 3530.3 149.116 3528.07 145.734C3527.22 144.425 3526.36 143.116 3525.5 141.807C3523.87 139.323 3522.24 136.84 3520.61 134.357C3518.47 131.094 3516.33 127.829 3514.19 124.562C3513.24 123.115 3513.24 123.115 3512.27 121.638C3511.41 120.334 3511.41 120.334 3510.54 119.004C3510.05 118.249 3509.55 117.495 3509.04 116.717C3508 115 3508 115 3508 114Z" fill="#0A0A0A"/>
<path d="M1606 114C1642.63 114 1679.26 114 1717 114C1717 121.59 1717 129.18 1717 137C1702.81 137 1688.62 137 1674 137C1674 174.29 1674 211.58 1674 250C1665.75 250 1657.5 250 1649 250C1649 212.71 1649 175.42 1649 137C1634.81 137 1620.62 137 1606 137C1606 129.41 1606 121.82 1606 114Z" fill="#080808"/>
<path d="M1124 114C1160.3 114 1196.6 114 1234 114C1234 121.59 1234 129.18 1234 137C1219.81 137 1205.62 137 1191 137C1191 174.29 1191 211.58 1191 250C1182.75 250 1174.5 250 1166 250C1166 212.71 1166 175.42 1166 137C1152.14 137 1138.28 137 1124 137C1124 129.41 1124 121.82 1124 114Z" fill="#070707"/>
<path d="M175 114C182.92 114 190.84 114 199 114C199 151.29 199 188.58 199 227C222.43 227 245.86 227 270 227C270 234.59 270 242.18 270 250C238.65 250 207.3 250 175 250C175 205.12 175 160.24 175 114Z" fill="#050505"/>
<path d="M1404 114C1412.25 114 1420.5 114 1429 114C1429 158.88 1429 203.76 1429 250C1420.75 250 1412.5 250 1404 250C1404 205.12 1404 160.24 1404 114Z" fill="#0B0B0B"/>
<path d="M944 114C951.92 114 959.84 114 968 114C968 158.88 968 203.76 968 250C960.08 250 952.16 250 944 250C944 205.12 944 160.24 944 114Z" fill="black"/>
<path d="M2629 124C2629.66 124.33 2630.32 124.66 2631 125C2625.72 130.28 2620.44 135.56 2615 141C2615 136.956 2616.48 135.999 2619.19 133.062C2619.96 132.208 2620.74 131.353 2621.54 130.473C2623.9 128.098 2626.34 126.033 2629 124Z" fill="#595959"/>
<path d="M1972 124C1972.66 124.33 1973.32 124.66 1974 125C1968.72 130.28 1963.44 135.56 1958 141C1958 136.956 1959.48 135.999 1962.19 133.062C1962.96 132.208 1963.74 131.353 1964.54 130.473C1966.9 128.098 1969.34 126.033 1972 124Z" fill="#575757"/>
<path d="M2770 125C2770.66 125.33 2771.32 125.66 2772 126C2767.05 130.95 2762.1 135.9 2757 141C2757 136.936 2758.53 135.948 2761.25 133C2762.04 132.134 2762.83 131.267 2763.64 130.375C2765.66 128.337 2767.65 126.638 2770 125Z" fill="#575757"/>
<path d="M1488 125C1488.66 125.33 1489.32 125.66 1490 126C1485.38 130.62 1480.76 135.24 1476 140C1476 135.097 1479.7 132.387 1483 129C1484.63 127.617 1486.27 126.255 1488 125Z" fill="#565656"/>
<path d="M1020 119C1020.66 119.33 1021.32 119.66 1022 120C1017.71 124.29 1013.42 128.58 1009 133C1009 129.302 1009.83 128.686 1012.25 126C1012.85 125.319 1013.46 124.639 1014.08 123.938C1015.94 122.063 1017.85 120.524 1020 119Z" fill="#565656"/>
</svg>
