<svg width="100" height="81" viewBox="0 0 100 81" fill="none" xmlns="http://www.w3.org/2000/svg">
<path d="M60.0212 57.2648C60.3814 57.4887 60.7264 57.7187 61.0639 57.9719C60.9982 58.042 60.9324 58.112 60.8647 58.1842C59.3854 59.7837 58.7379 61.241 58.7785 63.3933C58.8844 64.1363 59.1931 64.7451 59.5191 65.4229C59.7037 65.8493 59.7037 65.8493 59.7781 66.4622C59.1123 67.858 57.2285 68.3765 55.8382 68.9751C53.8535 69.8494 51.7941 71.0823 50.6923 72.9228C50.4957 73.4525 50.332 73.9873 50.1822 74.5304C49.5823 74.4339 49.5181 74.3894 49.1195 73.8974C48.822 73.4051 48.822 73.4051 48.822 73.0836C47.9782 73.0079 47.9782 73.0079 47.2492 73.3548C46.9465 73.7331 46.6852 74.1158 46.4416 74.5304C46.1334 74.45 46.1334 74.45 45.7615 74.2089C45.547 73.7931 45.3948 73.3646 45.2514 72.9228C44.9173 73.0061 44.9173 73.0061 44.5713 73.2443C44.3979 73.6181 44.2277 73.9931 44.0612 74.3696C43.8087 74.4492 43.8087 74.4492 43.5511 74.5304C43.0255 74.1238 42.8864 73.6905 42.701 73.0836C42.5327 73.0836 42.3643 73.0836 42.1909 73.0836C42.16 73.1745 42.1291 73.2655 42.0973 73.3592C42.0545 73.4771 42.0118 73.5951 41.9678 73.7166C41.9263 73.8341 41.8849 73.9516 41.8422 74.0726C41.6808 74.3696 41.6808 74.3696 41.1708 74.5304C40.6959 74.1205 40.5214 73.8109 40.4442 73.1953C40.3972 72.0721 40.3972 72.0721 40.8945 71.4659C41.5802 70.9873 41.9387 70.9729 42.7893 70.9654C43.0184 70.9617 43.2474 70.9578 43.4764 70.9538C43.8348 70.9482 44.1932 70.9434 44.5517 70.9413C46.682 70.9257 48.6494 70.6528 50.4372 69.4765C50.5337 69.4171 50.6301 69.3577 50.7295 69.2965C51.9207 68.5443 52.713 67.7673 53.0335 66.4276C53.1486 65.4589 52.8274 64.5634 52.5519 63.6388C52.5029 63.4614 52.454 63.284 52.4035 63.1013C51.9495 61.5348 51.3515 59.9305 50.1184 58.7557C49.5021 58.1598 49.5021 58.1598 49.5021 57.8112C50.1679 57.5998 50.8339 57.3889 51.4999 57.1782C51.6888 57.1182 51.8778 57.0582 52.0724 56.9964C52.2543 56.9389 52.4362 56.8814 52.6237 56.8221C52.7911 56.7691 52.9585 56.716 53.1309 56.6614C55.3403 55.9948 57.9918 56.193 60.0212 57.2648Z" fill="#282828"/>
<path fill-rule="evenodd" clip-rule="evenodd" d="M26.4634 76.0978L27.117 76.0953L27.117 76.0953L27.117 76.0953L27.117 76.0953L27.117 76.0953L27.117 76.0953C27.4582 76.1187 27.6121 76.1293 27.7617 76.1607C27.8846 76.1864 28.0046 76.2262 28.2231 76.2988C28.7771 76.465 29.2106 76.501 29.7896 76.5022L30.3701 76.5035L30.9691 76.4997L31.5682 76.5035L32.1487 76.5022L32.6741 76.5011C33.2265 76.4557 33.678 76.311 34.1997 76.138C34.5064 76.1171 34.6632 76.1065 34.8202 76.1013C34.9845 76.0959 35.149 76.0965 35.4855 76.0978L36.145 76.0953L36.145 76.0953L36.145 76.0953L36.145 76.0953L36.145 76.0953L36.145 76.0953C36.4977 76.1202 36.6448 76.1306 36.7853 76.1667C36.8858 76.1926 36.9829 76.2317 37.1496 76.2988L37.1496 76.2988C37.6658 76.4829 38.0637 76.5011 38.6144 76.5022L39.1965 76.5035L39.7999 76.4997L40.4013 76.5035L40.9841 76.5022L41.5128 76.5011C42.0665 76.4558 42.5183 76.3115 43.0411 76.138C43.3478 76.1171 43.5046 76.1065 43.6616 76.1013C43.8259 76.0959 43.9904 76.0965 44.3269 76.0978L44.9864 76.0953C45.3391 76.1202 45.4862 76.1306 45.6267 76.1667C45.7272 76.1926 45.8243 76.2317 45.991 76.2988C46.5072 76.4829 46.9051 76.5011 47.4558 76.5022L48.0379 76.5035L48.6413 76.4997L49.2427 76.5035L49.8255 76.5022L50.3542 76.5011C50.908 76.4558 51.3594 76.3107 51.8825 76.138C52.3471 76.1082 52.7897 76.0929 53.2533 76.0978L53.611 76.094C54.1177 76.0959 54.5348 76.1107 55.0047 76.2988C55.52 76.4835 55.9172 76.5011 56.4672 76.5022L57.0494 76.5035L57.6528 76.4997L58.2542 76.5035L58.837 76.5022L59.3656 76.5011C59.9194 76.4558 60.3711 76.3115 60.8939 76.138C61.2006 76.1171 61.3575 76.1065 61.5145 76.1013C61.6787 76.0959 61.8432 76.0965 62.1797 76.0978L62.8392 76.0953C63.1919 76.1202 63.339 76.1306 63.4795 76.1667C63.58 76.1926 63.6771 76.2317 63.8438 76.2988C64.3601 76.4829 64.7579 76.5011 65.3086 76.5022L65.8908 76.5035L66.4942 76.4997L67.0956 76.5035L67.6784 76.5022L68.207 76.5011C68.7607 76.4558 69.2125 76.3116 69.7353 76.138C70.0387 76.1172 70.194 76.1065 70.3496 76.1013C70.5126 76.0959 70.6759 76.0965 71.0105 76.0978L71.664 76.0953C72.0114 76.1192 72.1647 76.1297 72.3132 76.1621C72.4304 76.1876 72.5447 76.2268 72.7493 76.2969C73.5728 76.5375 74.4366 76.5361 75.2969 76.5348C75.487 76.5344 75.6769 76.5341 75.8662 76.5364C77.0522 76.5652 78.1647 76.619 79.0974 77.3939C79.3292 77.9053 79.2716 78.186 79.0868 78.7102C78.4732 79.2605 78.026 79.5168 77.1952 79.5743C76.653 79.6238 76.233 79.7112 75.7394 79.9259C74.7418 80.3097 73.3313 80.4051 72.3143 80.0475L71.9881 79.9159C71.1453 79.594 70.333 79.6035 69.4371 79.614L69.3952 79.6145L68.9077 79.6088C68.0021 79.6124 67.3076 79.7119 66.4762 80.0475C65.9763 80.2233 65.5035 80.2207 64.9745 80.2173L64.3901 80.2211C63.8793 80.1671 63.6068 80.1007 63.1527 79.9159C62.3068 79.5928 61.4762 79.6025 60.5811 79.6131L60.4582 79.6145L59.9418 79.6088C59.405 79.6106 59.1388 79.6115 58.8785 79.6508C58.6226 79.6895 58.3723 79.7654 57.8759 79.9159C57.2304 80.1976 56.7664 80.2215 56.0588 80.2173L55.4218 80.2211C54.8843 80.168 54.6046 80.1078 54.1293 79.9159C53.2926 79.5939 52.4848 79.6034 51.5952 79.6139L51.5424 79.6145L51.0549 79.6088C50.1493 79.6124 49.4548 79.7119 48.6234 80.0475C48.1235 80.2233 47.6506 80.2207 47.1217 80.2173L46.5372 80.2211C46.0264 80.1671 45.754 80.1007 45.2999 79.9159C44.454 79.5928 43.6234 79.6025 42.7282 79.6131L42.6054 79.6145L42.089 79.6088C41.5523 79.6105 41.2862 79.6114 41.026 79.6508C40.7701 79.6895 40.5199 79.7654 40.0237 79.9159C39.3752 80.1986 38.9061 80.2215 38.1953 80.2173L37.5524 80.2211C36.9631 80.1614 36.5988 80.0193 36.0715 79.7843C35.4419 79.5825 34.7743 79.5957 34.1134 79.6089C34.0037 79.6111 33.8943 79.6133 33.7852 79.6145L33.2708 79.6088C32.3411 79.6123 31.6204 79.7004 30.7672 80.0475C30.2712 80.2238 29.8007 80.2208 29.2759 80.2174L29.2689 80.2173L28.6844 80.2211L28.6844 80.2211C28.3936 80.1903 28.2424 80.1744 28.0957 80.1394C27.9369 80.1016 27.7834 80.0416 27.4637 79.9165C26.5396 79.562 25.5302 79.5795 24.5373 79.5967C24.3212 79.6005 24.1059 79.6042 23.8924 79.6041C22.7765 79.5865 22.348 79.5797 21.9957 79.4124C21.7761 79.3081 21.5861 79.1415 21.2776 78.8709C21.0903 78.6053 21.0062 78.4859 20.9684 78.3534C20.9376 78.2454 20.9376 78.1285 20.9376 77.9164C21.1162 77.3993 21.2785 77.1855 21.7751 76.9104C22.3638 76.6945 22.9736 76.621 23.5966 76.546L23.658 76.5386C23.9151 76.5062 24.0439 76.4899 24.1692 76.4592C24.295 76.4285 24.4173 76.3832 24.6622 76.2925C25.2838 76.1099 25.8134 76.0953 26.4634 76.0978ZM69.7353 76.9418C72.3101 76.7644 73.71 77.4723 75.6862 79.0317C75.0736 79.3934 74.5504 79.4013 73.8372 79.4035L73.2222 79.4116C72.1448 79.3061 71.4301 78.7805 70.6067 78.1475L70.1085 77.7707L69.7353 77.4241V76.9418ZM66.6748 79.0317C65.7069 78.1789 64.6833 77.4056 63.4443 76.9418C62.5446 76.8036 61.3757 76.714 60.5538 77.1026C60.6625 77.2053 60.7712 77.3099 60.8804 77.4151C61.7248 78.2279 62.604 79.0742 63.7843 79.3532C63.9054 79.361 64.0264 79.3702 64.1472 79.3793C65.0365 79.4466 65.9116 79.5127 66.6748 79.0317ZM51.8824 76.9418C53.7233 76.8602 54.3509 76.8324 54.8848 77.0425C55.1609 77.1512 55.412 77.3234 55.793 77.5848L56.3276 77.9497C56.8361 78.3025 57.336 78.665 57.8333 79.0317C57.2207 79.3934 56.6975 79.4013 55.9843 79.4035L55.3692 79.4116C54.2367 79.3007 53.4989 78.7163 52.6687 78.037L52.3878 77.8112C52.1619 77.6295 51.937 77.4465 51.7123 77.2633L51.8824 76.9418ZM39.5805 78.7343C38.2469 77.7385 37.1436 76.9147 35.326 76.8815C35.2325 76.8824 35.1458 76.8818 35.0645 76.8811C34.5657 76.8771 34.2705 76.8747 33.8595 77.2633C34.0812 77.4467 34.3032 77.6298 34.5267 77.8112L34.8053 78.037C35.6883 78.7713 36.4989 79.2974 37.709 79.4116L38.3227 79.4035L38.423 79.4032C39.0846 79.4021 39.3938 79.4015 39.9805 79.0317C39.8443 78.9313 39.7113 78.832 39.5805 78.7343ZM43.041 76.9418C44.6112 76.8538 45.8309 76.808 47.1216 77.7456L47.5919 78.0853C48.0079 78.3946 48.417 78.7096 48.8219 79.0317C48.0257 79.5336 47.1134 79.4548 46.1864 79.3748L46.1863 79.3748C46.1014 79.3675 46.0165 79.3601 45.9314 79.3532C44.8492 79.0996 44.0205 78.3291 43.2325 77.5967L43.2324 77.5966C43.1112 77.4839 42.991 77.3722 42.871 77.2633L43.041 76.9418ZM29.2688 77.7456C27.9705 76.8145 26.7619 76.8536 25.1882 76.9418V77.4241L25.5614 77.7707L26.0596 78.1475C26.8856 78.7825 27.5981 79.3112 28.681 79.406L29.3007 79.3934C29.9151 79.386 30.3859 79.3763 30.9691 79.1925C30.9118 79.0841 30.8699 79.0049 30.8186 78.9323C30.6793 78.7353 30.4705 78.5875 29.6952 78.0382L29.2688 77.7456Z" fill="#282828"/>
<path fill-rule="evenodd" clip-rule="evenodd" d="M63.4442 0.579998C63.6236 0.615971 63.7112 0.633545 63.7981 0.654229C63.8811 0.673987 63.9634 0.696582 64.1243 0.74076C64.1891 2.22912 64.2417 3.7176 64.2841 5.20666C64.2909 5.44379 64.298 5.68093 64.3053 5.91805C64.4206 9.68298 64.4561 10.8438 64.127 11.8899C63.9803 12.3562 63.7611 12.7997 63.4442 13.4409L63.2144 13.964C62.0206 16.4833 59.7227 17.9444 57.364 19.4142C55.1679 20.7889 53.0539 22.2301 51.1511 23.9564C50.7862 24.2875 50.4175 24.6047 50.0333 24.9153C48.2629 26.3709 46.5803 27.9189 44.9113 29.4769L44.4559 29.8971C43.0529 31.2167 41.5633 32.7674 41.2902 34.6966C41.3134 35.7631 41.8184 36.7412 42.3097 37.6926C42.3896 37.8473 42.4691 38.0013 42.5462 38.1549C43.2728 39.6414 43.5049 41.2322 43.0304 42.8302C42.3071 44.5183 40.9156 45.1334 39.2875 45.853L39.1134 45.93C37.5952 46.6138 36.2637 47.4439 35.5704 48.9492C35.3233 49.6957 35.2398 50.4479 35.3898 51.2199C35.6787 51.7208 36.0322 52.0863 36.58 52.3453C36.8418 52.3564 37.1042 52.3589 37.3663 52.3553L37.7874 52.3509L38.1102 52.3453C38.1509 51.6272 38.1563 51.0906 37.8552 50.4262C37.4855 49.5806 37.4221 48.7521 37.7808 47.8942C38.5073 47.0743 39.263 46.5675 40.2526 46.0803C41.3948 45.5153 42.2628 44.9562 43.1047 44.0258C44.6757 42.3047 46.5492 41.8754 48.8904 41.7053C50.7472 41.6091 52.4351 41.7709 54.2269 42.2374C54.5206 42.3271 54.6439 42.3648 54.7698 42.3779C54.8609 42.3874 54.9534 42.384 55.1128 42.378H55.1128H55.1129H55.1129C54.6846 42.2463 54.256 42.1159 53.8271 41.9862L53.4641 41.8741C50.7612 41.0615 47.6078 41.3205 44.9226 42.1231C44.7758 42.1624 44.6904 42.1853 44.6035 42.1987C44.4823 42.2173 44.3582 42.2173 44.0611 42.2173V41.2527C49.0312 38.3274 54.5109 36.9786 60.2755 38.2183L60.8938 38.359C56.1835 36.5704 51.5907 37.2083 47.0131 39.0187C46.4563 39.2484 45.9023 39.4825 45.3527 39.7272C44.7801 39.9808 44.5703 40.0737 44.3515 40.1077C44.225 40.1274 44.0955 40.1274 43.8911 40.1274C43.8511 39.6716 43.8322 39.4082 44.1025 39.0197L44.4039 38.732L44.7458 38.4037L45.1238 38.0576L45.5158 37.6942C47.7573 35.6627 50.3177 34.0357 52.9604 32.5111C53.4556 32.2253 53.9492 31.9373 54.4428 31.6491C55.9581 30.765 57.4747 29.8831 58.997 29.0097C61.1019 27.7988 63.159 26.557 65.1445 25.1765C64.1495 25.7248 63.1547 26.2734 62.1617 26.825C60.4071 27.7981 58.6454 28.7554 56.8663 29.6879C53.9049 31.2464 51.037 32.9147 48.3118 34.8222L47.9899 35.0469C46.4976 36.0971 45.1762 37.2496 43.8911 38.5198L43.5511 38.8413C43.0916 37.9897 42.9841 37.5576 43.211 36.5906C44.8402 33.5469 48.0929 31.1209 50.913 29.0857C51.1895 28.8834 51.4611 28.6766 51.7316 28.4671C53.3758 27.2006 55.1304 26.0878 56.8897 24.9721L57.2039 24.7727C57.873 24.3479 58.5407 23.9209 59.2082 23.4936L59.5661 23.2645L60.2929 22.7992C60.9071 22.406 61.5214 22.0132 62.1358 21.6203L62.5061 21.3835C63.241 20.9137 63.9761 20.4442 64.7114 19.9749C65.1831 19.6739 65.6546 19.3726 66.126 19.0713C66.3451 18.9314 66.5643 18.7915 66.7835 18.6518C68.2955 17.6882 69.7864 16.6999 71.2655 15.6916C70.8137 15.8988 70.3857 16.122 69.9617 16.3761L69.593 16.5965L69.1933 16.837L68.7696 17.091C67.037 18.1309 65.3085 19.1768 63.5815 20.2249C63.184 20.466 62.7862 20.7067 62.3882 20.9471L62.3881 20.9472C59.6916 22.5653 58.3463 23.3725 57.0303 24.2249C55.7201 25.0733 54.439 25.9665 51.8824 27.7487L51.5413 28.0064C50.845 28.5342 50.1537 29.0674 49.4647 29.6038C49.1936 29.8141 48.9205 30.0221 48.6472 30.2299C46.3055 32.012 44.3139 33.8469 42.7009 36.2691C42.2994 35.8894 42.2963 35.6883 42.2893 35.2195C42.2886 35.1705 42.2878 35.1187 42.2865 35.0634C42.3383 33.1008 43.6087 31.8887 44.9742 30.5859C45.0663 30.498 45.1588 30.4098 45.2513 30.3209L45.6007 29.9774C46.0658 29.5265 46.5483 29.1055 47.0552 28.697C47.8821 28.0157 48.648 27.2818 49.417 26.543C50.2866 25.7076 51.1594 24.8917 52.1007 24.1283C52.4286 23.861 52.742 23.5804 53.0561 23.2991L53.1363 23.2273C55.5493 21.1708 58.3255 19.5045 61.2692 18.2278C63.9792 17.0301 66.5833 15.5153 69.0551 13.9232L69.6037 13.5703C70.7675 12.7866 71.6373 11.9732 72.4556 10.8687L72.6561 10.6037C73.7848 9.10412 74.689 7.54857 75.5161 5.88513L75.8409 5.24334C76.2867 4.35633 76.7134 3.47374 77.0676 2.54933C77.2819 2.01918 77.3599 1.88547 77.854 1.52447L78.2366 1.38381C78.6301 1.75588 78.63 1.88888 78.6296 2.34642C78.6296 2.38486 78.6295 2.42559 78.6297 2.46895C78.5188 7.36534 76.8827 13.03 73.9859 17.1385L74.298 17.033C75.5473 16.6404 76.6915 16.425 77.9603 16.8471C78.4564 17.1709 78.7724 17.4549 79.0867 17.9423L79.0867 17.9423C79.0504 18.1266 79.0333 18.2131 79.0102 18.2979C78.9897 18.3729 78.9644 18.4465 78.9167 18.5853L78.6165 18.557C76.5371 18.4489 74.8469 19.4333 73.3058 20.6752C72.2988 21.5753 71.6459 22.5311 71.0954 23.7297C71.852 23.2925 72.5856 22.8423 73.3058 22.3532C74.5464 21.5324 75.6491 20.9211 77.2164 20.9967C77.4349 21.086 77.5312 21.1253 77.6243 21.171C77.6975 21.2069 77.7689 21.2468 77.8963 21.3181L77.8965 21.3183L77.8965 21.3183C77.7948 21.6068 77.7539 21.7227 77.6751 21.7998C77.6221 21.8516 77.5521 21.8858 77.4349 21.9431L77.057 22.0718C76.0575 22.4683 75.3086 23.061 74.496 23.7297L74.2411 23.9354C72.4718 25.3694 70.939 26.9578 70.4472 29.1755V29.1756C70.4148 29.4275 70.3984 29.5544 70.4152 29.6767C70.4321 29.8006 70.483 29.9199 70.5854 30.1602C71.3759 30.6424 72.2581 30.4923 73.1358 30.3209C73.9008 30.0798 74.5256 29.7846 75.1548 29.3061L75.5161 29.0348L76.0262 29.1956C75.9348 29.8782 75.7052 30.2605 75.2505 30.7931L74.9204 31.1894C73.9636 32.1309 72.7971 32.7852 71.6161 33.4457C69.5802 34.6081 67.6501 35.7246 67.0148 38.0375C66.9591 38.5757 66.9658 39.105 66.9829 39.6451L66.9899 40.069C66.9958 40.41 67.005 40.751 67.0148 41.0919C66.0875 41.411 65.1385 41.6119 64.1782 41.8151L64.1782 41.8151L64.0818 41.8355L63.5638 41.9473C62.5918 42.1548 62.3668 42.2028 62.14 42.2139C62.0716 42.2173 62.0031 42.2173 61.914 42.2173V42.5388L62.2454 42.5218C66.9949 42.3873 71.4935 45.2106 74.836 48.1655L75.2644 48.563C77.4551 50.5656 80.6362 51.7309 83.6774 51.7022C85.051 51.6046 86.5774 51.2652 87.5429 50.2742L87.5432 50.2737C87.6562 50.1299 87.7207 50.0477 87.7806 49.9623C87.8601 49.8489 87.9314 49.7298 88.0973 49.4529L88.0975 49.4526L88.0978 49.4522L88.0979 49.4519L88.0981 49.4516L87.786 49.4742C86.4465 49.5287 85.3293 49.3349 84.3004 48.4776C83.2314 47.3957 82.9211 46.5304 82.9548 45.0601C83.0346 44.2503 83.3227 43.7256 83.8581 43.0814C85.0774 42.1493 86.348 41.6645 87.9281 41.735C89.1093 41.9087 90.1659 42.3467 90.9886 43.1818C91.3328 43.7279 91.6687 44.3034 91.6687 44.9502C92.7301 44.7069 93.3713 43.8402 93.9361 43.0079C94.094 42.748 94.2427 42.4831 94.3891 42.2173L94.0491 42.378C92.6656 42.4121 91.7295 42.0139 90.6957 41.1761C90.6056 41.0745 90.5529 41.0151 90.522 40.9459C90.4785 40.8482 90.4785 40.7312 90.4785 40.4489L91.1002 40.4715C91.3747 40.4775 91.6492 40.4834 91.9237 40.4891L92.3315 40.5054C93.7252 40.527 94.7701 40.0206 95.7965 39.1452C96.7007 38.2069 97.329 37.0313 97.9313 35.9045L97.9313 35.9044L97.9358 35.8961C98.0121 35.7898 98.0584 35.7254 98.1175 35.6765C98.2087 35.6012 98.3304 35.5628 98.6397 35.4653L98.6398 35.4653C98.8892 36.3899 98.7243 37.2711 98.5538 38.1823C98.5269 38.3258 98.4999 38.47 98.4744 38.6152C98.2794 39.8181 98.1502 41.0023 98.7673 42.1068C98.9515 42.3218 99.0467 42.433 99.1487 42.5376C99.258 42.6497 99.375 42.7543 99.6173 42.9708L99.6174 42.9708C99.8171 43.1649 99.9125 43.2576 99.9582 43.3705C100 43.474 100 43.5943 100 43.8249C98.6458 43.7829 97.7471 43.3628 96.5995 42.6996L96.4301 42.9426C95.892 43.7106 95.3457 44.473 94.7929 45.2316L94.4144 45.7515C93.8466 46.505 93.3372 47.0918 92.5401 47.6329C91.6443 48.2964 91.1704 48.9905 90.6485 49.9338C89.2252 52.4199 87.6107 53.752 84.764 54.6229C81.3993 55.4183 77.7046 54.317 74.7298 52.7572L74.3087 52.5167C74.1505 52.416 74.0729 52.3666 73.9883 52.3458C73.9068 52.3258 73.8187 52.3324 73.6458 52.3453C73.5879 52.8777 73.5317 53.4102 73.4758 53.9428L73.4267 54.394C73.2751 55.8522 73.2669 57.1994 73.5289 58.6451L73.5897 59.0191C73.7979 60.1973 74.2044 61.034 75.1761 61.8302C75.7361 62.1927 76.3192 62.5167 76.9082 62.835C77.6956 63.2729 77.9829 63.4327 78.154 63.6747C78.2523 63.8137 78.3122 63.9799 78.4066 64.2416C78.43 65.3689 78.0251 66.1893 77.4396 67.1454C76.8628 68.1327 76.3382 69.1124 75.9199 70.1697L75.7926 70.485C75.5805 71.0408 75.4138 71.5293 75.5161 72.119L75.5162 72.119L75.5165 72.1194C75.6399 72.2488 75.7037 72.3157 75.775 72.3733C75.8512 72.4349 75.9359 72.4858 76.1112 72.5912C76.4319 72.8304 76.5757 72.9377 76.6621 73.0799C76.7324 73.1956 76.7647 73.3343 76.8232 73.5858L76.8232 73.5859C76.6816 74.146 76.518 74.3553 76.0262 74.6911H75.3461L75.0061 73.8873C74.7433 73.809 74.6055 73.7679 74.4647 73.7467C74.3098 73.7234 74.1513 73.7244 73.8184 73.7266H73.8183H73.8182H73.8182H73.8181H73.818H73.8179H73.8179H73.8178H73.8177H73.8177H73.8176H73.8175H73.8175H73.8174H73.8173H73.8173H73.8172H73.8171H73.8171H73.817H73.8169H73.8168H73.8168H73.8167H73.8166H73.8166H73.8165H73.8164H73.8163H73.8162H73.8161H73.816H73.8159C73.5196 73.9681 73.313 74.2381 73.0889 74.531L73.0889 74.531C73.0486 74.5837 73.0078 74.6371 72.9657 74.6911H72.4556L72.1156 73.405C71.5984 73.2514 71.3466 73.2117 70.8404 73.4151C70.322 73.7949 69.9675 74.202 69.5652 74.6911L68.8851 74.5304L68.7151 73.0835C68.5213 73.0948 68.4191 73.1007 68.3188 73.1182C68.2067 73.1379 68.0971 73.172 67.8649 73.2443C67.725 73.4062 67.6539 73.4884 67.5947 73.5784C67.5336 73.6712 67.4852 73.7723 67.3867 73.9778L67.1709 74.3803L67.0148 74.6911C66.5493 74.5918 66.4127 74.5626 66.3051 74.4902C66.2604 74.4602 66.2208 74.4227 66.1646 74.3696C66.0309 73.713 66.0301 73.1481 66.3825 72.5579C67.3829 71.3992 68.3627 71.1891 69.884 71.0037C71.1772 70.8413 72.4104 70.6232 73.3695 69.7276C74.2744 68.6047 74.5442 67.0647 74.496 65.6885L74.0835 65.5616C73.2413 65.2919 72.4087 64.9987 71.5755 64.7053L71.5749 64.7051L71.4794 64.6715C70.5934 64.3603 69.7051 64.0626 68.8034 63.7939C67.5351 63.2157 66.717 62.3535 65.9096 61.2876C63.8178 58.6287 61.0523 56.4052 57.4888 55.826C54.8378 55.5025 52.4363 56.3372 50.0023 57.1832C49.7569 57.2685 49.5112 57.3539 49.2649 57.4383C48.3748 57.7404 47.4787 58.0132 46.5717 58.2664L46.2152 58.3667C45.1612 58.6549 44.1845 58.7938 43.0888 58.8096L42.4386 58.8235C41.9901 58.8318 41.5415 58.8389 41.093 58.8448L40.4428 58.8599L39.8526 58.8695C39.124 58.9579 38.5377 59.1563 38.0299 59.6739L37.8565 59.9494L37.6553 60.2613L37.4514 60.5943L37.2302 60.9409C36.8856 61.4843 36.5529 62.0334 36.228 62.5875C35.4331 63.9416 34.5414 65.129 33.5195 66.3315C32.558 67.3792 32.0883 67.8911 31.7236 68.4693C31.3752 69.0216 31.1227 69.6345 30.629 70.8329C30.8085 71.0309 30.885 71.1153 30.9676 71.1932C31.0289 71.2511 31.0935 71.3054 31.2062 71.3999C32.1727 72.2381 32.854 72.9496 33.0094 74.2089C32.9231 74.442 32.8869 74.5399 32.8343 74.6281C32.7963 74.6919 32.7497 74.7506 32.6693 74.8519C32.0243 74.6123 31.703 74.2586 31.3091 73.7266V73.405L30.459 73.2443L29.6089 74.6911H28.7587L28.6963 74.4155L28.61 74.0581L28.5263 73.7021C28.4892 73.5463 28.4696 73.464 28.4205 73.4071C28.3655 73.3434 28.2736 73.3116 28.0786 73.2443C27.8306 73.2112 27.7049 73.1945 27.5791 73.194C27.4499 73.1936 27.3206 73.2103 27.0585 73.2443C26.6084 73.6547 26.4186 74.1406 26.2083 74.6911H25.3582L25.0181 73.2443H24.168L23.8279 74.6911C23.6555 74.7093 23.5607 74.7192 23.4659 74.721C23.3503 74.7232 23.2346 74.7132 22.9778 74.6911C22.3307 74.1983 22.1573 73.8129 22.0639 73.0333C22.1287 72.4308 22.2505 72.1131 22.6949 71.6718C23.4969 71.1165 24.613 71.1017 25.6107 71.0885C25.7683 71.0865 25.9229 71.0844 26.0728 71.0803C26.7147 70.9633 26.9434 70.8011 27.3985 70.3506C27.7598 69.8093 28.0628 69.2446 28.3655 68.6726L28.6325 68.1776C28.9043 67.6708 29.1723 67.1624 29.4388 66.6531L29.6876 66.1779C31.6081 62.8139 31.6081 62.8139 31.5369 59.1412C30.9406 58.1845 29.8682 57.6338 28.856 57.114L28.8558 57.1139L28.8536 57.1127C28.7719 57.0708 28.6906 57.029 28.61 56.9873C26.0425 55.6172 23.4678 54.0673 21.6176 51.863C21.1246 51.5134 20.5991 51.457 19.9871 51.4667C19.3859 51.5764 18.8622 51.8454 18.3311 52.1183L18.331 52.1183L18.3309 52.1184L18.3307 52.1184L18.3305 52.1185C18.2261 52.1722 18.1214 52.2259 18.0158 52.2787C17.1289 52.6997 16.4632 52.724 15.5179 52.506C14.4418 52.1633 13.6909 51.54 12.8507 50.837C12.6583 50.6762 12.4652 50.516 12.2716 50.3565C12.0805 50.1985 11.8911 50.0386 11.7037 49.8767C11.1102 49.3838 10.6782 49.1619 9.88574 49.13L9.88552 49.1301L9.88521 49.1301L9.88514 49.1302L9.88465 49.1303C9.54333 49.2031 9.38347 49.2372 9.22627 49.2809C9.08792 49.3194 8.95164 49.3653 8.69555 49.4516C8.66866 49.6668 8.65448 49.7803 8.65302 49.894C8.65139 50.0207 8.66556 50.1476 8.69555 50.4161L9.0356 50.7176C9.1886 50.8713 9.27277 50.9558 9.32777 51.0563C9.39502 51.1792 9.41869 51.3259 9.47129 51.652C9.42918 52.4682 9.03109 53.1431 8.52552 53.7921L8.01544 54.1136L7.33533 53.9529L7.50536 52.3453C6.87544 51.9482 6.3656 51.9174 5.63506 52.0237C5.11663 52.2471 5.11663 52.2471 4.78493 52.6668C4.71379 52.9485 4.67851 53.0882 4.65732 53.2301C4.63646 53.3696 4.62923 53.5112 4.6149 53.7921C4.56236 54.0074 4.50788 54.2224 4.44487 54.4352H3.76477C3.13942 53.3554 3.02412 52.5918 3.25469 51.3807C2.35231 51.7599 2.09231 52.331 1.72444 53.1491C1.56675 53.1202 1.48454 53.1052 1.40322 53.0863C1.31467 53.0658 1.22716 53.0407 1.04438 52.9883L1.04434 52.9883C0.574667 52.1002 0.926272 51.0826 1.23503 50.189L1.27281 50.0795L1.38439 49.7731H0.874308L0.704281 50.2554L0.0241735 50.0946C-0.0350678 49.5065 0.00184432 49.1731 0.279214 48.6377C0.911526 47.9352 1.65034 47.4922 2.57458 47.2009C3.62603 47.1457 3.62603 47.1457 4.16858 47.3617C5.33618 47.7822 6.42972 47.5014 7.5565 47.0853C8.01081 46.8814 8.40138 46.6499 8.81244 46.377C9.52021 45.9082 10.0406 45.6856 10.9059 45.5933C11.7144 45.8157 12.3449 46.2233 13.0252 46.6631L13.0276 46.6647L13.0289 46.6655C13.0918 46.7062 13.1552 46.7472 13.2192 46.7883C13.8557 47.184 14.1728 47.3812 14.5146 47.5157C14.8541 47.6493 15.2179 47.721 15.9429 47.864C16.6776 47.6325 17.3082 47.3878 17.877 46.8794C18.0876 46.388 18.1175 45.9037 18.1497 45.3806L18.1533 45.322C18.1865 45.0047 18.2216 44.6876 18.2582 44.3706L18.3158 43.8648C18.9144 39.4762 20.7496 35.5424 24.4529 32.7053C25.0778 32.2849 25.7007 31.9251 26.389 31.607C26.6698 31.4636 26.81 31.392 26.8936 31.2786C26.977 31.1656 27.0042 31.0112 27.0585 30.7027V30.7027C27.0824 30.4111 27.0929 30.2825 27.0604 30.166C27.0347 30.0741 26.9823 29.9896 26.8884 29.8386C26.0332 29.7845 25.469 29.9571 24.6887 30.2807C23.7914 30.6447 22.9198 30.9105 21.9683 31.1147C20.9703 31.3452 20.3851 31.6265 19.7148 32.3637L19.7147 32.3637C19.582 32.4534 19.5066 32.5044 19.4235 32.5332C19.314 32.5712 19.1912 32.5708 18.9065 32.5697C17.9963 32.2913 17.5352 31.5834 17.0488 30.8369L17.0269 30.8032C16.8841 30.3931 16.8568 30.1135 16.8568 29.6779L17.1929 29.7005C18.2043 29.74 18.7748 29.6798 19.5773 29.0348L19.9173 28.7133C18.8207 28.8803 17.75 29.1011 16.6762 29.3664C15.6628 29.6154 14.6737 29.791 13.6263 29.8386V30.4817C12.7309 30.3769 12.4127 30.0473 11.855 29.4097C11.3498 28.7056 11.0759 27.9564 11.0759 27.1057C11.6073 27.3011 11.7822 27.3654 11.9503 27.4442C12.0328 27.4829 12.1136 27.525 12.234 27.5878L12.2342 27.5879L12.2342 27.588C12.6812 27.7811 13.0996 27.8533 13.5838 27.9296L14.0912 28.0112L14.4765 28.0702L14.1364 28.5525C14.9692 28.577 15.6783 28.503 16.4842 28.3064L17.1235 28.1525L17.7814 27.9899C18.0053 27.9355 18.2292 27.8813 18.4532 27.8272C18.9982 27.6951 19.5429 27.5617 20.0874 27.4272C18.8595 27.0402 17.662 27.1531 16.5062 27.6784L16.0539 27.9101C15.8813 27.9815 15.7857 28.021 15.6875 28.0287C15.5654 28.0383 15.4394 27.9986 15.1566 27.9095C15.1025 27.7378 15.0729 27.6437 15.0481 27.5483C15.018 27.4327 14.995 27.3153 14.944 27.0554C14.8659 26.7251 14.8271 26.5609 14.7527 26.4148C14.6791 26.2706 14.5709 26.144 14.3556 25.8924L14.3556 25.8924C14.0637 25.746 13.7603 25.6205 13.4563 25.4981C13.2623 25.1311 13.2632 24.8935 13.2648 24.4974L13.265 24.4531L13.2637 24.0663C13.2746 23.904 13.2802 23.82 13.3022 23.7405C13.3258 23.655 13.3682 23.5747 13.4563 23.4082H13.9664V23.7297C15.8973 24.4083 17.5644 24.2671 19.556 23.9206L20.0218 23.8402C21.351 23.6063 21.3511 23.6063 22.4677 22.9259C22.6047 22.0624 22.271 21.5549 21.8054 20.8469L21.8036 20.8441C21.7211 20.698 21.6752 20.6166 21.6497 20.5293C21.6176 20.4197 21.6176 20.3006 21.6176 20.0322C22.2075 20.1058 22.7523 20.1755 23.3179 20.3537C24.7682 20.4533 26.3621 20.4421 27.6217 19.7006C27.9472 19.1649 27.9257 19.0797 27.7824 18.5102L27.7811 18.5049L27.6628 18.1288C27.5473 17.7032 27.5968 17.3933 27.7386 16.9777C28.7126 16.836 29.3114 17.2567 30.0245 17.7578C30.1107 17.8184 30.1985 17.8802 30.289 17.9423L30.5799 18.1551C31.3627 18.6697 32.0703 18.6522 33.0008 18.5426C34.0108 18.3127 34.7809 17.7696 35.5993 17.1926L35.6734 17.1403L36.123 16.827L36.5248 16.5312C36.9765 16.3065 37.1969 16.3591 37.6319 16.4628C37.6757 16.4732 37.7216 16.4842 37.7702 16.4954C37.8088 17.7283 37.7132 18.8891 37.4832 20.1025L37.3912 20.5924C37.0985 22.0614 36.6726 23.3153 35.7617 24.5536C35.2601 25.2643 35.2855 25.9557 35.3898 26.7842L35.4748 27.0887C36.1939 29.9517 35.0468 32.7269 33.5498 35.1595C33.3392 35.4809 33.1146 35.7889 32.8839 36.0977C31.7491 37.6359 31.3201 38.7121 31.6492 40.6097C31.9909 41.917 32.6718 42.7547 33.8595 43.5034C34.9931 43.8606 36.7685 43.8884 37.8658 43.423C38.7519 42.8991 39.436 42.1383 39.8849 41.2527C40.1133 40.1005 40.0336 39.3447 39.4525 38.3106C39.0581 37.7793 38.5985 37.3648 38.0996 36.9222C36.7981 35.7513 36.3941 34.7037 36.3143 32.9936C36.432 29.4458 39.3083 26.5534 41.834 24.1859C42.0844 23.9509 42.333 23.7142 42.5814 23.4772C43.6418 22.4732 44.7585 21.5608 45.9314 20.6752C46.1167 20.5268 46.3012 20.3773 46.484 20.2262C47.6519 19.2647 48.8678 18.3871 50.1196 17.5256C51.2019 16.7795 52.2623 16.0104 53.3152 15.2277C54.0375 14.692 54.7681 14.1708 55.5105 13.6603C60.0791 10.5007 61.9527 6.53364 63.1228 1.36748C63.2317 0.9166 63.2623 0.790096 63.3342 0.694741C63.3622 0.657561 63.3965 0.625116 63.4442 0.580024L63.4442 0.579998ZM88.2682 43.8249C88.8728 44.1621 89.0071 44.5649 89.1821 45.1813C89.3014 45.7883 89.3107 46.1801 88.9483 46.7186C88.2582 47.1536 87.7187 47.1648 86.908 47.0401C86.2956 46.7793 85.6853 46.4965 85.3777 45.9148C85.3348 45.293 85.3106 44.8146 85.7178 44.3072C86.5264 43.785 87.3155 43.6774 88.2682 43.8249ZM20.7675 44.1464H20.4274C20.2446 44.9932 20.2236 45.5979 20.5975 46.3971C21.2279 46.859 21.7203 46.895 22.489 46.8693C22.5357 46.8677 22.5796 46.8659 22.6211 46.8643C23.1186 46.8444 23.2691 46.8383 23.7004 47.2009L23.998 47.5224C24.7024 47.6074 25.2525 47.538 25.8683 47.2009C26.5343 46.4662 26.6504 45.8833 26.7184 44.9502H26.3784C25.8662 45.2914 25.4394 45.5698 24.8375 45.744C24.5824 45.7683 24.4543 45.7806 24.3352 45.7534C24.2151 45.726 24.1041 45.6585 23.8811 45.5229C23.6926 45.4025 23.5945 45.3398 23.4872 45.3072C23.3707 45.2717 23.2434 45.2717 22.9778 45.2717C22.5831 45.3372 22.186 45.3914 21.7876 45.4325L21.4476 45.111C21.2273 44.7855 21.0009 44.4636 20.7675 44.1464ZM21.1076 39.9666C21.503 40.1535 21.5859 40.3823 21.7079 40.7183L21.7079 40.7184C21.7321 40.785 21.7577 40.8557 21.7877 40.9312L21.9577 41.0919L22.5847 41.0618C23.3004 41.0485 23.665 41.2898 24.2209 41.6576L24.3381 41.735C24.9913 41.8358 25.2531 41.7974 25.8152 41.4637C26.2044 41.0957 26.4429 40.7348 26.7185 40.2881H27.0585C26.9616 41.4108 26.5955 42.2621 25.677 43.001C24.9521 43.5076 24.5669 43.5762 23.658 43.5034C23.3739 43.2899 23.0905 43.0755 22.8078 42.8603L22.8076 42.8603C22.6417 42.8329 22.5568 42.8189 22.4713 42.8101C22.3816 42.8009 22.2914 42.7973 22.1066 42.79H22.1065H22.1064L22.1064 42.79C21.7197 42.7369 21.56 42.715 21.4253 42.645C21.3305 42.5957 21.248 42.5226 21.1076 42.3982L21.1076 42.3981C20.8542 41.6494 20.8656 40.9075 20.9375 40.1274L21.1076 39.9666ZM28.5888 47.8439H28.2487L28.0787 48.0047L28.0787 48.0047C28.0078 48.1649 27.9717 48.2466 27.9303 48.3255C27.8872 48.4075 27.8383 48.4866 27.7386 48.6477L27.2285 48.8085C26.6709 49.1244 26.143 49.4054 25.5283 49.6123C24.408 49.7173 23.2388 49.8059 22.2533 49.2248L21.8408 48.9592L21.4244 48.6923L21.1076 48.487C21.0142 48.7517 20.9721 48.8711 20.9813 48.9865C20.9888 49.0813 21.0309 49.1733 21.1076 49.341C21.7973 50.2174 22.6036 50.8594 23.7277 51.1647C25.0352 51.3288 26.3978 51.0542 27.469 50.3213C28.3422 49.5872 28.512 48.8964 28.5888 47.8439ZM29.0987 50.7377C29.5038 50.8007 29.7307 50.8549 30.0312 51.1264C30.3905 51.6012 30.6126 51.9465 30.7352 52.5261C30.584 53.1838 30.3463 53.3844 29.7788 53.7921C28.9305 54.2019 28.0164 54.6239 27.0584 54.4352C25.9504 53.9309 25.5671 53.7564 25.3376 53.462C25.2162 53.3063 25.1379 53.117 25.0181 52.8276C25.1632 52.7589 25.2464 52.7196 25.3338 52.7049C25.4511 52.6851 25.5758 52.7097 25.8682 52.7673C26.7174 52.8952 27.4755 52.6764 28.2486 52.3453C28.8102 51.8532 29.0122 51.4538 29.0987 50.7377ZM23.3179 37.0729H22.9778C22.9071 37.2067 22.8658 37.2848 22.8294 37.3651C22.7784 37.4779 22.7371 37.5951 22.6378 37.8767C22.5459 38.5031 22.539 39.0071 22.8928 39.5647C23.1425 39.7064 23.2455 39.7648 23.3561 39.7977C23.4338 39.8208 23.5153 39.8313 23.6539 39.8492C24.4694 39.8646 24.8402 39.7887 25.4538 39.2934C25.9095 38.7963 25.9907 38.5219 26.0383 37.8767C25.4389 38.0694 24.9309 38.1982 24.2955 38.1982C24.0464 38.1375 23.9166 38.1058 23.8197 38.0314C23.7144 37.9506 23.6479 37.8192 23.5092 37.5451L23.3179 37.0729ZM47.4616 45.754L47.0751 45.8847C45.4034 46.4898 43.7055 47.391 42.8709 48.9693C42.8319 49.3237 42.8011 49.6789 42.7753 50.0343L42.7321 50.6133L42.7009 51.0592C42.5583 51.1057 42.4817 51.1306 42.4037 51.15C42.3131 51.1726 42.2206 51.1875 42.0208 51.2199L41.5107 50.8984C41.3603 50.0274 41.5979 49.4441 42.0626 48.7131C43.2854 47.1269 45.2451 45.4325 47.4616 45.4325V45.754ZM69.1037 45.6695C68.9442 45.5723 68.748 45.5352 68.205 45.4325V49.7731H68.8851C69.4496 48.5053 69.5323 47.2774 69.3951 45.9148C69.2723 45.7987 69.1939 45.7245 69.1037 45.6695ZM65.4845 44.4679L66.3347 44.6287C66.3439 45.0909 66.3506 45.553 66.3559 46.0153L66.3646 46.409C66.3711 47.1689 66.3053 47.7722 65.9946 48.487L65.4845 48.3262V44.4679ZM36.41 18.2638L36.24 17.9423C35.9269 18.1476 35.6157 18.3551 35.3062 18.5652L34.9223 18.8265C33.8872 19.5042 33.3245 20.0471 32.8394 21.1575L33.2645 21.1474C33.7548 21.0233 34.0768 20.9417 34.3578 20.7861C34.8951 20.4885 35.2823 19.9199 36.41 18.2638ZM51.3723 46.3971V46.7186L51.0735 46.8015C50.0221 47.1099 49.1295 47.3981 48.5031 48.3061C48.3019 48.8348 48.2988 49.217 48.3119 49.7731L47.9718 50.2554L47.1217 49.9338C47.184 48.7546 47.9457 48.0294 48.7901 47.231C49.5772 46.7203 50.4098 46.3971 51.3723 46.3971ZM63.8687 44.954C63.7681 44.3745 63.5785 44.1889 63.1042 43.8249L62.7642 44.1464C62.8997 44.7692 62.9177 45.258 62.8193 45.8928C62.7812 46.1298 62.7465 46.3672 62.7143 46.6049L62.6685 46.9598L62.5941 47.5224H63.2742C63.4758 47.2445 63.605 47.0663 63.6893 46.869C63.8398 46.517 63.8474 46.104 63.8687 44.954ZM27.9086 21.8005H28.0787C28.1644 22.6517 27.9408 23.0568 27.3986 23.7297L26.8885 23.5689H26.8885C26.5838 23.5486 26.4333 23.5385 26.2828 23.5388C26.1358 23.539 25.9888 23.5491 25.6983 23.5689L25.6983 23.5689C25.5046 23.7175 25.4024 23.7959 25.3536 23.8994C25.2992 24.0151 25.3113 24.1621 25.337 24.4732L25.3582 25.0158L24.6781 24.855C24.6265 24.7353 24.5977 24.6684 24.5771 24.5991C24.5509 24.5113 24.5378 24.4197 24.5081 24.212L24.5081 24.212C24.8173 23.546 25.1684 23.22 25.8683 22.9259C26.0981 22.9047 26.3285 22.8882 26.559 22.8756C26.9211 22.8528 27.098 22.8416 27.2347 22.7616C27.3654 22.6851 27.4593 22.5456 27.643 22.2728L27.9086 21.8005ZM32.0105 55.6509C31.9842 54.9421 31.8307 54.7461 31.3091 54.2744L31.1391 54.4352C31.0969 54.4721 31.0552 54.5081 31.0144 54.5434L31.0139 54.5439C30.5557 54.9403 30.1927 55.2543 30.1189 55.882L30.3952 56.1232C30.9032 56.4265 31.2288 56.4139 31.8192 56.3643C31.8736 56.3129 31.9105 56.278 31.9364 56.2361C31.9914 56.1471 31.996 56.0269 32.0105 55.6509ZM35.8998 21.1575H36.2399L36.2399 21.1575C36.0485 21.9419 35.9722 22.2543 35.789 22.48C35.6676 22.6294 35.4994 22.7408 35.2197 22.9259C34.6977 23.1123 34.1633 23.2465 33.6249 23.3817L33.6248 23.3817L33.5195 23.4082C32.758 23.6015 32.3796 23.6976 32.0122 23.8256C31.6493 23.9521 31.2972 24.1097 30.5971 24.423L30.1189 24.6943L29.7789 24.5335C30.6838 23.8419 31.5742 23.4573 32.68 23.157C33.5799 22.9125 34.0188 22.7932 34.4039 22.5777C34.7705 22.3725 35.0883 22.0801 35.7086 21.5092L35.8998 21.1575ZM25.0181 34.6615H24.6781C24.2848 35.2192 24.2658 35.4528 24.338 36.1083C24.4491 36.2711 24.5021 36.3488 24.5699 36.4103C24.6318 36.4664 24.706 36.5091 24.8481 36.5906C25.2807 36.5642 25.5289 36.4295 25.9001 36.2189C26.245 35.9153 26.315 35.739 26.3783 35.3045L25.0181 35.4653V34.6615ZM71.4355 47.5224H71.9456C72.1815 48.4959 72.0291 49.0207 71.6055 49.9338H71.0955C71.0538 48.8074 71.0398 48.4285 71.1528 48.0924C71.2101 47.922 71.3 47.7626 71.4355 47.5224ZM70.7554 58.615H70.4154C70.1078 59.4873 70.3514 60.3722 70.7554 61.1871H71.4355L70.7554 58.615ZM27.5685 32.8931C27.5186 33.4236 27.4987 33.6351 27.4026 33.8029C27.3388 33.9141 27.2415 34.0061 27.0797 34.1591L27.0796 34.1591C26.9189 34.2396 26.8297 34.2842 26.7353 34.309C26.6174 34.34 26.4914 34.34 26.2083 34.34C26.1883 34.1278 26.1778 34.0152 26.1765 33.9025C26.1751 33.775 26.1857 33.6474 26.2083 33.3754C26.6808 32.8967 26.8541 32.8931 27.5685 32.8931ZM65.3145 52.9883L64.8044 52.8276C64.6725 53.0771 64.6035 53.2075 64.542 53.3412C64.4749 53.4873 64.4167 53.6374 64.295 53.9512L64.2945 53.9526L64.2943 53.9529C64.3719 54.1729 64.4059 54.2694 64.4566 54.3562C64.4961 54.4239 64.5459 54.4858 64.6344 54.5959L64.8788 54.4251C64.9911 54.2935 65.0652 54.2065 65.1184 54.1082C65.2219 53.9164 65.2454 53.6814 65.3145 52.9884V52.9883ZM70.7554 51.863L71.0954 52.0237L70.9254 53.4706H70.2453C70.3326 52.6175 70.3601 52.3485 70.4916 52.1476C70.5521 52.0551 70.6347 51.9771 70.7552 51.8632L70.7553 51.863L70.7554 51.863ZM68.2049 54.5959L67.6948 54.4352L67.6765 54.48C67.4425 55.0518 67.2816 55.445 67.5248 56.0428H68.0349C68.0894 55.9398 68.1283 55.8661 68.1557 55.7884C68.2245 55.5931 68.2201 55.3721 68.2049 54.5959ZM33.5195 26.1411H33.8596V27.588L33.1795 27.9095C33.0941 27.7481 33.0516 27.6677 33.0425 27.5837C33.0334 27.5003 33.0571 27.4134 33.1044 27.2401L33.2539 26.8444L33.402 26.4463L33.5195 26.1411ZM74.3259 49.13H73.9859C73.8351 49.3439 73.7437 49.4735 73.691 49.6172C73.6099 49.8381 73.6201 50.0924 73.6458 50.7374V50.7375V50.7376V50.7376H73.9859L74.2728 50.386C74.5275 49.8699 74.503 49.6627 74.3259 49.13ZM65.3145 50.0946L65.6545 50.2554V51.3807L64.9744 51.7022C64.8025 51.2632 64.7966 51.0817 64.9532 50.6271C65.0751 50.3901 65.1193 50.3042 65.1794 50.2314C65.2135 50.19 65.2528 50.1529 65.3143 50.0947L65.3144 50.0947L65.3145 50.0946ZM68.715 51.3807L68.205 51.2199C68.1644 51.2583 68.1324 51.2886 68.1057 51.323C68.007 51.4506 67.9821 51.6354 67.8649 52.506H68.545L68.715 51.3807ZM67.3548 57.4896H67.8649C67.8891 58.0048 67.8996 58.2265 67.8333 58.4222C67.7832 58.57 67.6895 58.703 67.5249 58.9365H67.1848C67.1696 58.1604 67.1653 57.9393 67.234 57.7441C67.2614 57.6663 67.3004 57.5926 67.3548 57.4896ZM70.5854 55.5605H70.2453C70.1705 55.7728 70.1249 55.902 70.1086 56.0348C70.0833 56.2415 70.1289 56.4568 70.2453 57.0074H70.7554C70.7571 56.9211 70.7604 56.8368 70.7637 56.7542C70.7803 56.3353 70.7953 55.9575 70.5854 55.5605ZM62.5941 49.13L62.9341 49.6123L62.9341 49.6124L62.9339 49.613L62.9338 49.6134L62.9338 49.6136L62.9336 49.6142C62.8565 49.8798 62.8194 50.0073 62.7747 50.1322C62.7335 50.2473 62.6858 50.3602 62.5941 50.5769H62.084C62.1679 49.8626 62.1966 49.6185 62.3156 49.4319C62.3773 49.335 62.4634 49.2536 62.5941 49.13ZM76.3662 50.5769H76.0262C75.6702 51.1238 75.6556 51.5499 75.6861 52.1845L75.6862 52.1844L75.6863 52.1844C75.8402 52.1071 75.9245 52.0648 76.0021 52.0127C76.0959 51.9498 76.1801 51.8727 76.366 51.7024L76.3661 51.7023L76.3662 51.7022C76.3886 51.3901 76.3992 51.2423 76.398 51.0946C76.3969 50.9618 76.3863 50.8291 76.3662 50.577V50.5769ZM78.2366 51.7022L78.5766 52.0237C78.5437 52.2831 78.5278 52.4086 78.5054 52.5329C78.4845 52.6494 78.458 52.7648 78.4066 52.9883H77.8965C78.0137 52.1177 78.0386 51.9329 78.1373 51.8053C78.164 51.7709 78.196 51.7406 78.2366 51.7022ZM64.6344 55.7213L64.1244 55.5605L63.7843 56.0428C63.8184 56.231 63.8343 56.3185 63.8579 56.4038C63.8785 56.4779 63.9049 56.5504 63.9543 56.6858H64.2944L64.6344 55.7213ZM80.6169 52.506H81.127L80.9569 53.4706H80.4469C80.4396 53.2028 80.4399 52.9346 80.4469 52.6668L80.6169 52.506ZM32.1592 26.7842L31.6491 26.6234L31.4791 27.588H31.8192L32.1592 26.7842Z" fill="#282828"/>
</svg>
